<svg width="129" height="32" viewBox="0 0 129 32" fill="none" xmlns="http://www.w3.org/2000/svg">
<path d="M3.328 17.32C3.296 17.256 3.264 17.256 3.264 17.224C3.296 17.16 3.296 17.128 3.296 17.128C3.36 17.096 3.36 17.064 3.36 17C3.36 16.936 3.36 16.904 3.392 16.872C3.424 16.872 3.424 16.808 3.424 16.776C3.392 16.744 3.392 16.68 3.392 16.648C3.392 16.52 3.456 16.392 3.584 16.36C3.552 16.2 3.552 16.072 3.552 15.976C3.552 15.944 3.616 16.04 3.648 16.104V15.688C3.648 15.624 3.648 15.56 3.68 15.528C3.776 15.528 3.872 15.08 3.872 15.016L3.968 14.792C3.968 14.696 4.032 14.632 4.032 14.568L4.128 14.408C4.128 14.216 4.256 14.088 4.256 13.96C4.416 13.608 4.512 13.32 4.672 13.064L4.832 12.84C4.832 12.744 4.896 12.616 4.896 12.616L5.312 11.784C5.312 11.784 5.408 11.624 5.44 11.56L5.088 12.328C4.896 12.744 4.8 12.968 4.8 12.968L4.256 14.312C4.224 14.376 4.224 14.472 4.192 14.472L4.128 14.76C4.064 14.92 3.904 15.24 3.904 15.496L3.68 16.232C3.68 16.328 3.648 16.392 3.584 16.424L3.488 16.872C3.424 16.968 3.392 17.224 3.36 17.288C3.36 17.352 3.36 17.416 3.328 17.448V17.32ZM3.232 18.28C3.168 18.344 3.136 18.44 3.104 18.536C3.104 18.44 3.136 18.312 3.136 18.28V17.896C3.136 17.672 3.136 17.608 3.232 17.512V18.28ZM3.04 19.816C2.944 19.976 2.944 20.104 2.944 20.264V20.488C2.944 20.552 2.912 20.552 2.912 20.584C2.912 20.552 2.848 20.488 2.848 20.488C2.848 20.36 2.848 20.2 2.912 20.04C2.912 19.944 2.944 19.816 2.944 19.656C2.944 19.656 3.008 19.656 3.008 19.592L3.04 19.816ZM3.072 18.824C3.072 19.016 3.04 19.144 3.04 19.304C3.04 19.304 2.976 19.432 2.944 19.432C2.944 19.24 2.976 19.048 2.976 19.048C2.976 19.048 3.04 18.952 3.072 18.824ZM3.008 20.744C3.04 20.552 3.04 20.36 3.04 20.2C3.04 20.136 3.104 20.136 3.104 20.104V20.584C3.104 20.648 3.04 20.68 3.008 20.744ZM3.04 21.096C3.04 21.032 3.04 21 3.104 20.936C3.104 21 3.136 21.032 3.136 21.032C3.136 21.128 3.104 21.192 3.04 21.288V21.096ZM3.04 21.704C3.04 21.704 3.072 21.64 3.072 21.576C3.072 21.48 3.104 21.48 3.136 21.384V21.64C3.104 21.672 3.104 21.704 3.04 21.704ZM5.184 25.288C6.912 25.288 8.736 23.848 8.8 23.784C8.832 23.752 8.896 23.784 8.896 23.688L9.024 23.656L9.408 23.336C9.92 22.888 10.56 22.216 10.912 21.864L11.392 21.416C11.424 21.32 11.584 21.192 11.68 21.128C11.776 21 11.776 20.904 12 20.904V20.648C12.032 20.648 12.064 20.648 12.064 20.712C12.064 20.744 12.128 20.648 12.128 20.616C12.128 20.584 12.128 20.552 12.192 20.552C12.192 20.456 12.256 20.456 12.416 20.328C12.48 20.136 12.672 20.04 12.672 19.912C12.704 19.912 13.536 18.888 13.632 18.664L13.376 18.888C13.376 18.92 12.416 20.008 12.288 20.168C12.288 20.2 12.192 20.328 12.16 20.328C12.192 20.168 12.48 19.88 12.48 19.88C12.48 19.848 13.152 19.048 13.472 18.664C13.504 18.568 13.536 18.504 13.6 18.472C13.632 18.472 13.696 18.376 13.696 18.344C13.76 18.248 13.696 18.312 13.92 18.056C14.048 17.96 13.984 17.96 14.08 17.864L14.336 17.576C14.336 17.576 14.432 17.32 14.56 17.32C14.56 17.192 14.624 17.096 14.752 17.096C14.752 17.032 14.784 16.872 14.912 16.808C14.912 16.744 14.944 16.712 14.944 16.68C14.944 16.68 15.168 16.296 15.168 16.232C15.168 16.2 15.104 16.072 15.072 16.04H15.264C15.328 16.008 15.36 15.976 15.36 15.944C15.36 15.944 15.232 15.88 15.232 15.816V15.592C15.232 15.592 15.488 15.592 15.488 15.464L15.552 14.952C15.552 14.888 15.52 14.824 15.488 14.824C15.392 14.824 13.888 16.52 13.792 16.616C10.336 20.84 6.816 24.04 5.6 24.104C3.808 23.944 3.232 22.248 3.232 20.424V20.008C3.232 17.512 4.384 14.344 4.864 13.064C7.168 7.88 9.728 3.88 12 2.92C12.256 2.92 12.672 3.208 12.928 3.368C13.44 4.104 13.536 4.712 13.536 5.48V5.864C13.504 6.344 13.312 7.848 12.864 8.296C12.864 9.16 13.504 9.928 14.272 10.024C14.336 9.96 14.816 9.832 15.008 9.8C15.392 8.904 15.808 7.784 15.872 6.888C15.936 6.568 15.968 6.248 15.968 5.992V5.768C15.968 4.104 15.168 2.28 13.952 1.736C13.92 1.736 13.856 1.64 13.856 1.64C13.536 1.512 12.736 1.064 12.544 1.064L11.904 1.032C11.872 1.032 11.776 0.935999 11.68 0.935999C11.648 0.935999 11.616 1.064 11.552 1.096C11.488 1.032 11.392 0.999998 11.328 0.999998C11.232 0.999998 11.136 1.032 11.072 1.032C10.848 1.032 9.856 1.192 9.76 1.448C4.704 5.128 0.768 13.256 0.384 19.176V19.624C0.384 22.088 1.856 25.256 4.64 25.256L5.184 25.288ZM11.84 20.776C11.808 20.84 11.744 20.904 11.744 20.904C11.744 20.904 11.648 20.84 11.616 20.776H11.84ZM11.872 20.552C11.872 20.648 11.776 20.648 11.776 20.648C11.776 20.552 11.84 20.456 11.936 20.456C11.872 20.488 11.872 20.552 11.872 20.552ZM22.8723 14.344C22.6803 14.376 22.6163 14.504 22.4883 14.696C21.7203 15.656 18.5523 20.616 16.7923 21.96C16.7283 21.992 16.6643 22.024 16.6323 22.024C16.5043 22.024 16.5683 21.864 16.5043 21.64V21.512C16.5043 19.144 18.0083 14.952 18.7763 12.84C19.6403 10.344 20.1523 8.84 20.6963 6.408C20.7283 6.312 20.7283 6.216 20.7283 6.088C20.7283 5.992 20.7283 5.896 20.6643 5.8C20.6643 5.224 20.2803 4.712 19.6403 4.488C19.6083 4.392 19.5443 4.328 19.4483 4.328C19.2563 4.328 19.1283 4.424 19.0323 4.584C17.7843 8.456 15.9603 13.064 15.0963 15.912C14.7443 17.064 14.2643 18.6 14.2643 20.008V20.392C14.2963 21.32 14.5203 22.568 14.9043 22.568C14.5843 22.12 14.4563 21.288 14.4243 20.584V19.976C14.4243 19.464 14.4563 19.112 14.5203 18.664C14.5203 18.632 14.5203 18.6 14.5523 18.536C14.5523 18.632 14.6483 18.76 14.6483 18.76C14.5523 19.176 14.5843 19.368 14.5523 19.624V19.816C14.5523 20.04 14.5203 20.104 14.5203 20.2C14.5203 20.296 14.5523 20.296 14.5843 20.392C14.6163 20.36 14.6803 20.36 14.7122 20.36C14.7122 20.488 14.7122 20.616 14.6483 20.712C14.6163 20.648 14.6163 20.584 14.6163 20.52C14.5523 20.648 14.5203 20.744 14.5203 20.84C14.5843 21.096 14.5523 22.152 15.1923 22.76C15.3843 22.952 15.9283 23.112 16.1203 23.272C16.2163 23.336 16.3123 23.336 16.3763 23.336C16.7923 23.336 16.6323 23.24 16.9203 23.176C18.5523 22.6 21.1443 18.632 22.1363 17.032C22.0723 17.032 22.0403 17.096 22.0083 17.16C21.9443 17.16 21.9123 17.128 21.8483 17.096C22.2323 17 22.6163 16.296 22.8403 15.976C23.0642 15.592 23.1283 15.464 23.1283 15.432C23.1283 15.368 23.0323 15.528 22.9683 15.528L22.8083 15.304C22.9043 15.144 22.9683 15.016 22.9683 14.984C22.9683 14.984 23.0003 14.824 23.0003 14.792L22.8083 15.08L22.7123 14.6L22.8723 14.344ZM16.1523 21.416L16.0883 21.32V20.808L16.2163 20.264C16.2163 20.52 16.2163 20.744 16.1523 20.936V21.416ZM15.4163 15.752C15.4163 15.752 15.4163 15.88 15.3843 15.88L15.2563 15.944C15.3203 15.688 15.3523 15.464 15.4803 15.272L15.4163 15.752ZM16.4403 17.8C16.5043 17.8 16.5363 17.768 16.6003 17.704C16.5683 17.8 16.5363 17.96 16.5363 18.024V18.152C16.5363 18.184 16.5043 18.216 16.4723 18.248C16.4723 18.024 16.4403 17.896 16.4403 17.8ZM16.8243 16.584C16.8563 16.488 16.8563 16.392 16.9523 16.36C16.9523 16.456 16.9203 16.52 16.8883 16.552L16.8243 16.744L16.8883 16.84H16.6643C16.7603 16.808 16.8243 16.584 16.8243 16.584ZM17.8163 22.088C17.9123 22.056 17.9443 22.024 17.9763 22.024C17.9123 22.088 17.7843 22.216 17.7843 22.28C17.7203 22.312 17.5603 22.504 17.4963 22.504L17.7523 22.248C17.7523 22.184 17.7843 22.12 17.8163 22.088ZM15.1603 16.52C15.1603 16.648 15.0963 16.776 15.0963 16.872C15.0643 16.84 15.0323 16.776 15.0323 16.712C15.0323 16.616 15.0963 16.552 15.1603 16.52ZM14.7763 21.032C14.7763 21.128 14.8083 21.224 14.8083 21.32L14.7443 21.48C14.7122 21.448 14.7122 21.416 14.7122 21.384L14.7763 21.032ZM15.2563 16.136C15.2563 16.2 15.2563 16.264 15.1923 16.328C15.1603 16.328 15.1603 16.264 15.1603 16.232C15.1603 16.168 15.1923 16.136 15.2563 16.136ZM16.5683 17.192L16.5363 17.064C16.5363 16.968 16.6323 16.936 16.6323 16.936L16.5683 17.192ZM18.7123 20.36C18.7123 20.296 18.7763 20.232 18.7763 20.264C18.7763 20.328 18.7123 20.36 18.7123 20.424C18.6803 20.424 18.6163 20.456 18.5843 20.488C18.6163 20.456 18.6483 20.392 18.7123 20.36ZM29.0045 21.192C28.9405 21.192 28.9085 21.128 28.9085 21V20.872C29.1965 18.6 30.1245 15.24 30.9245 13.128C30.9245 13.096 30.6685 12.968 30.6685 12.84C30.6685 12.776 30.7005 12.776 30.7005 12.616C30.4445 12.296 29.6445 12.2 29.3565 12.2C28.3965 12.2 24.4285 19.88 23.8845 19.976L23.8205 19.784C24.0445 17.416 25.4845 14.44 26.5725 12.456C26.5725 12.456 26.6365 12.36 26.6365 12.296C26.6365 11.944 25.2605 11.656 24.9085 11.656C24.3645 11.656 23.0205 13.48 22.4765 14.728C21.7725 16.296 21.4525 17.608 21.4525 18.984C21.4525 19.08 21.4525 19.176 21.4845 19.272V19.624C21.6125 20.296 22.5085 21.128 23.5965 21.352H23.7565C24.8765 21.352 26.4125 19.08 27.1485 17.672C26.9885 18.28 26.8285 19.016 26.7645 20.008V20.2C26.7645 21.608 28.1085 22.312 28.9405 22.312C29.9005 22.312 31.5645 20.488 32.4285 19.304C34.5085 16.488 34.7965 15.72 34.8285 15.688C34.8285 15.656 34.9885 15.304 34.9885 15.24V14.984C34.9565 15.016 34.9565 15.048 34.9565 15.048C34.9245 15.048 34.9245 14.952 34.8925 14.92L34.9885 14.76V14.536L34.7005 14.92L34.9245 14.408C34.9245 14.376 34.8925 14.344 34.8605 14.28L34.6685 14.536C34.6365 14.536 34.5725 14.568 34.7645 14.248L34.7965 14.12C34.7645 14.12 34.7645 14.088 34.7645 13.992C34.7645 13.992 34.5085 14.376 34.3805 14.536L34.0605 15.016C33.4205 15.944 29.7405 21.192 29.0045 21.192ZM29.5805 16.776L29.1645 18.472L29.1965 18.024C29.2605 17.704 29.7405 15.784 30.1245 14.856L29.5805 16.776ZM28.7485 20.424C28.7485 20.456 28.7165 20.584 28.7165 20.68L28.6845 20.52C28.6845 20.04 28.8125 19.848 28.8445 19.816C28.8445 20.232 28.7485 20.296 28.7485 20.424ZM23.5645 19.4C23.5645 19.432 23.6285 19.368 23.6605 19.336C23.6925 19.272 23.7245 19.144 23.7885 19.112C23.7565 19.24 23.7245 19.304 23.7245 19.368C23.6925 19.464 23.5965 19.528 23.5965 19.56C23.5645 19.464 23.4365 19.4 23.4365 19.4C23.5325 19.4 23.5645 19.272 23.6285 19.208L23.5645 19.4ZM30.9245 20.264C30.9885 20.104 30.9885 19.976 31.1165 19.848V20.072C31.0845 20.168 31.0525 20.232 30.9245 20.264ZM23.7885 18.952C23.7245 18.984 23.6605 19.016 23.6285 19.08V18.952C23.6605 18.952 23.7565 18.92 23.7565 18.888C23.7565 18.856 23.8205 18.632 23.9165 18.504C23.8845 18.6 23.8205 18.76 23.8205 18.856C23.7885 18.888 23.7885 18.92 23.7885 18.952ZM28.3645 20.584C28.3325 20.552 28.2685 20.584 28.2365 20.456C28.2365 20.36 28.2685 20.2 28.3645 20.2C28.3645 20.2 28.3325 20.264 28.3005 20.296L28.3645 20.584ZM28.9085 19.624C28.9405 19.56 28.9405 19.336 28.9405 19.24C29.0045 19.24 29.0365 19.304 29.0365 19.368C29.0365 19.464 28.9405 19.592 28.9085 19.624ZM29.1325 18.568C29.1325 18.6 29.1005 18.888 29.1005 18.952L29.0045 18.792C29.0685 18.696 29.0365 18.632 29.1325 18.568ZM28.1405 19.176C28.1405 19.272 28.1405 19.304 28.0765 19.368C28.0765 19.272 27.9805 19.304 27.9485 19.208L28.1405 19.176ZM23.6925 19.72V19.976C23.6605 19.976 23.6285 19.72 23.6285 19.656C23.6925 19.656 23.6605 19.56 23.7245 19.56L23.6925 19.72ZM28.2685 19.528C28.2365 19.528 28.2045 19.496 28.1725 19.432C28.3005 19.432 28.3325 19.272 28.3645 19.208C28.3645 19.336 28.3005 19.432 28.2685 19.528ZM28.6525 20.936C28.6525 20.968 28.6205 21 28.5565 21.064C28.5565 21.064 28.5565 20.872 28.5885 20.84C28.5885 20.872 28.6525 20.904 28.6525 20.936ZM29.2605 14.888C29.2605 15.048 29.2285 15.08 29.1325 15.08C29.1325 15.016 29.1645 14.984 29.1965 14.984L29.2605 14.888ZM47.1218 13.032V12.904L47.0258 12.936C47.1218 12.872 47.2178 12.776 47.2178 12.68C47.1858 12.68 46.9938 12.68 46.9298 12.712C45.7138 12.872 44.2738 13.512 43.1538 14.088V13.32L43.0898 13.064C42.9938 12.104 41.5218 11.496 40.6258 11.368C39.8258 11.368 39.1218 11.944 38.4818 12.52C38.0978 12.872 36.5618 14.76 36.3378 15.368C36.6898 14.184 37.1058 12.776 37.5858 11.4H37.4578L37.5218 11.144L37.6178 11.24C38.5138 8.488 39.4418 5.8 39.6018 4.616C39.6338 4.488 39.6338 4.36 39.6338 4.232C39.6338 3.624 38.8978 2.92 38.2898 2.92H38.1298C38.0658 2.92 38.0338 2.92 37.9698 3.016L37.8738 3.368C37.3938 5.16 34.8658 11.368 33.8738 15.368C33.5538 16.648 33.2978 18.12 33.2658 19.048V19.24C33.2658 20.008 33.4258 21 33.9058 21C33.8738 21 33.8418 20.968 33.8418 20.936C33.9058 20.968 33.9378 20.968 34.0018 20.968C34.1938 21 34.6418 21.256 34.8658 21.256C34.9618 21.256 35.0898 21.256 35.1858 21.256C35.2178 21.256 35.2818 21.256 35.2818 21.224V21.064C35.2498 21 35.2498 20.904 35.2498 20.872C35.2498 20.84 35.2818 20.808 35.3138 20.776C35.4738 20.776 35.5378 20.712 35.5378 20.52C35.5378 20.424 35.5378 20.36 35.5698 20.296C35.6338 20.072 35.7618 19.88 35.8258 19.656L35.9538 19.4C36.2738 18.408 37.6498 16.328 38.2258 15.496C38.2898 15.432 38.3218 15.368 38.3538 15.304L38.4498 15.144C38.5458 15.048 38.6098 14.952 38.6738 14.856C39.3778 14.088 39.4098 13.928 40.7538 12.744C40.8177 12.744 40.8498 12.712 40.8818 12.712C40.9778 12.712 41.0417 13.256 41.0417 13.352V13.672C40.9778 14.184 40.9138 14.632 40.7858 15.048L39.7298 15.848C39.6658 15.912 38.2258 17.256 37.9378 17.608L37.8738 17.672C37.6818 17.864 37.6178 18.024 37.4258 18.184L37.2018 18.472C36.9458 18.824 36.6898 19.144 36.4658 19.496C36.4658 19.528 36.4018 19.592 36.3698 19.656L36.2098 19.944C35.9538 20.52 35.7618 20.904 35.6658 21.416V21.544C35.6658 21.64 35.6978 21.704 35.7298 21.736C35.7938 21.768 35.7618 21.864 35.8258 21.864C36.1458 22.024 37.1378 22.568 37.6818 22.568C38.2898 22.568 38.8658 22.248 39.2498 21.8L40.1778 20.744L40.2098 20.84C40.1458 21 39.2178 21.992 38.9618 22.184C39.0258 22.152 39.2178 22.056 39.3778 21.96C39.5378 21.736 39.7618 21.64 39.9218 21.416L40.6578 20.488C41.1698 19.816 41.5858 19.08 41.9378 18.312L42.0658 18.024C42.3538 17.384 42.7378 16.424 42.9618 15.624C43.6018 15.208 44.1778 14.92 44.8178 14.6C44.8498 14.6 44.9458 14.536 44.9778 14.536C45.3938 14.344 46.1618 13.96 46.5138 13.832C46.8018 13.704 46.8018 13.608 46.9298 13.448L46.7698 13.512L46.9938 13.32C46.9938 13.224 47.1218 13.128 47.1218 13.032ZM37.3618 21.16L37.2338 21.256C37.1698 21.32 37.1698 21.352 37.0738 21.352C37.1058 20.968 37.3618 20.648 37.4898 20.328C37.6818 20.072 37.8738 19.752 38.0978 19.496C38.5778 18.888 39.0578 18.312 39.6978 17.704C39.6978 17.768 39.6658 17.8 39.6658 17.832C38.9938 19.048 38.3858 20.104 37.3618 21.16ZM41.2338 18.792C41.2658 18.76 41.4578 18.728 41.4898 18.728C41.4898 18.664 41.5218 18.568 41.5538 18.568C41.5858 18.536 41.6178 18.504 41.6498 18.504L41.6178 18.344C41.6498 18.28 41.7778 18.088 41.7778 18.056C41.8098 18.024 41.8418 17.992 41.8418 17.96C41.8418 17.928 41.9378 17.736 41.9378 17.736V17.928C41.9378 17.96 41.8738 18.056 41.8418 18.088C41.7778 18.12 41.7778 18.216 41.7138 18.312C41.7138 18.344 41.7458 18.376 41.7458 18.408C41.7458 18.44 41.7138 18.472 41.6498 18.504C41.6498 18.504 41.5218 18.632 41.5218 18.664C41.5218 18.728 41.5218 18.792 41.4258 18.888C41.4258 18.824 41.4258 18.792 41.3938 18.792H41.2338ZM36.1778 15.24C36.1778 15.24 35.9858 15.912 35.9218 15.944L35.9538 15.72C35.9858 15.592 35.9858 15.464 36.0498 15.336C36.0498 15.24 36.1458 15.24 36.1778 15.24ZM38.2898 22.248C38.2898 22.376 38.1618 22.408 38.0658 22.408C38.0338 22.408 37.9698 22.408 37.9378 22.376C38.0338 22.312 38.1618 22.248 38.2898 22.248ZM40.1138 16.808C40.0498 16.872 39.9858 16.904 39.9858 16.936C39.9858 17 39.8898 17.032 39.7938 17.064C39.7938 17.064 39.7938 16.936 39.8898 16.904C39.8898 16.904 39.9858 16.808 40.1138 16.808ZM37.9058 19.112C37.8418 19.144 37.7778 19.24 37.7458 19.304C37.7138 19.336 37.6498 19.4 37.6178 19.4C37.6178 19.4 37.6178 19.304 37.6818 19.24C37.6818 19.208 37.7458 19.112 37.9058 19.112ZM38.9938 17.576C38.9938 17.512 39.1538 17.352 39.2498 17.352L39.1538 17.48C39.1538 17.48 38.9938 17.64 38.9938 17.576ZM43.6338 15.08C43.6018 15.112 43.5058 15.208 43.4738 15.208L43.3778 15.272C43.2818 15.24 43.1858 15.24 43.1858 15.24C43.2818 15.208 43.4098 15.144 43.5058 15.144C43.5378 15.144 43.5698 15.112 43.6338 15.08ZM40.1778 20.072C40.1778 20.168 40.0178 20.232 39.9218 20.232C39.9218 20.168 40.1138 20.104 40.1778 20.072ZM39.4418 20.744C39.4098 20.776 39.3778 20.808 39.3458 20.808C39.3778 20.776 39.3778 20.712 39.3778 20.648H39.6018C39.5058 20.744 39.4418 20.744 39.4418 20.744ZM46.8658 13.096C46.8338 13.16 46.7698 13.128 46.6738 13.16C46.6738 13.192 46.6418 13.192 46.5778 13.192C46.6738 13.128 46.7378 13.096 46.8658 13.096ZM38.0338 15.208C38.0018 15.208 37.9698 15.176 37.9698 15.144C37.9698 15.112 38.0338 15.08 38.0658 15.08C38.0658 15.08 38.0658 15.176 38.0338 15.208ZM44.6578 14.056L44.6898 14.152L44.5618 14.216C44.5938 14.152 44.5938 14.12 44.6578 14.056ZM61.8188 15.624L61.8828 15.4C61.8828 15.4 61.9148 15.336 61.9148 15.272L61.8508 15.4L61.9148 15.048C61.9148 14.952 62.0108 14.888 62.0108 14.824C62.0108 14.824 61.9788 14.792 61.8828 14.952C61.9148 14.792 61.8828 14.568 61.8828 14.376C61.8828 14.344 61.7868 14.536 61.7228 14.664V14.44L61.8188 14.248C61.7548 14.248 61.7228 14.248 61.6908 14.28C61.2748 14.792 60.1228 16.552 59.1308 17.96C57.5948 20.104 55.9308 22.376 55.3868 22.44C55.2908 22.44 55.2908 21.704 55.2908 21.576C55.2908 21.448 55.2908 21.16 55.3228 20.904C55.5788 19.528 56.2828 16.712 56.7308 15.208C56.7308 15.144 56.8268 14.888 56.8268 14.856C57.6908 12.008 59.6748 6.984 59.8668 5.256V5C59.8668 4.872 59.8668 4.488 59.7708 4.456C59.6748 4.104 58.8428 3.656 58.5228 3.656C58.3628 3.656 58.2348 3.784 58.2348 3.944C58.1068 4.392 57.8508 4.936 57.7548 5.256C57.3708 6.408 55.7708 10.408 55.0668 12.232C54.7468 12.232 53.7868 11.656 53.3708 11.656C53.2428 11.656 53.0508 11.688 52.9548 11.72C50.4268 12.712 48.3788 16.36 48.3788 19.016C48.3788 19.304 49.2747 20.328 49.6908 20.616C50.0108 20.776 50.3948 20.84 50.7788 20.84C50.8428 20.84 50.8748 20.84 50.9388 20.808C51.3228 20.808 51.5788 20.648 51.8028 20.456C52.1228 20.136 52.2508 20.168 52.8268 19.432L53.7228 18.248C53.6268 18.728 53.4988 19.464 53.4668 20.456V20.84C53.4668 21.736 53.6268 22.536 54.1068 22.984L54.2028 23.08C54.5548 23.368 54.8748 23.592 55.4508 23.592C55.9308 23.592 57.1148 22.536 57.4348 22.12C57.3708 22.12 57.3708 21.992 57.3708 21.864C57.3708 21.832 57.4028 21.8 57.4348 21.736C57.4668 21.736 57.4988 21.736 57.4988 21.608L57.7548 21.416C57.7868 21.448 57.5308 21.672 57.5308 21.704C57.5308 21.768 57.4668 21.832 57.4668 21.992C57.4988 21.992 57.7868 21.768 57.8508 21.608C57.8828 21.608 57.8828 21.544 57.8828 21.512C57.8828 21.48 57.9468 21.416 57.9788 21.384C57.9788 21.256 58.1708 21.192 58.2668 21.192L58.4268 21C58.8428 20.328 59.6108 19.4 59.9628 18.696L60.0268 18.6C60.0908 18.504 60.2188 18.344 60.2828 18.216C60.4108 18.056 61.8188 15.752 61.8188 15.624ZM50.5548 19.24C50.5228 19.24 50.5228 19.336 50.5228 19.336C50.5228 19.336 50.4908 19.208 50.4908 19.176C51.4508 16.296 53.8828 13.576 54.4268 13.576C53.8188 14.824 51.3228 18.952 50.5548 19.24ZM55.9628 17.32L55.8668 17.64C55.8988 17.672 55.9308 17.704 55.9308 17.8C55.8988 17.8 55.8668 17.8 55.8028 17.928L55.4828 19.112C55.4828 18.792 55.6428 18.088 55.6748 17.864L55.5788 17.736L55.5468 17.96C55.5468 18.024 55.4508 18.056 55.4508 18.088L55.4828 17.64C55.5148 17.576 55.6108 17.448 55.6108 17.416C55.6108 17.352 55.5788 17.288 55.5788 17.192C55.5788 17.16 55.6428 17.064 55.6748 17.064C55.7068 17.16 55.7708 16.712 55.8988 16.648L55.8348 16.52L55.9948 16.488C55.8668 16.968 55.8348 17.096 55.8348 17.128C55.8348 17.192 55.8988 17.032 55.9308 16.968C55.9948 16.84 56.0588 16.584 56.1228 16.392C56.2188 16.296 56.2828 15.976 56.2828 15.816L56.5068 15.496C56.0908 16.808 56.0268 17.096 56.0268 17.128C56.0268 17.16 55.9628 17.256 55.9628 17.32ZM52.3148 19.848L51.7068 20.392C51.8348 20.168 51.9628 20.104 52.1228 19.944C52.6668 19.368 53.2748 18.504 53.8188 17.768L53.7548 17.992C53.0828 18.888 52.5388 19.656 52.3148 19.848ZM53.1788 18.44C53.1788 18.44 52.8268 18.888 52.4748 19.304C52.6668 19.016 53.4028 18.088 53.3708 18.088L53.8828 17.416L53.8188 17.64C53.8188 17.64 53.7548 17.704 53.1788 18.44ZM50.8428 17.928C50.8108 17.96 50.8108 17.896 50.8108 17.864C50.8108 17.832 50.9388 17.352 51.0988 17.384C50.9708 17.608 50.8428 17.864 50.8428 17.928ZM52.7628 14.888C52.6988 14.92 52.8908 14.568 52.9868 14.472C53.0508 14.472 53.0828 14.408 53.0828 14.408C53.1468 14.344 53.2748 14.312 53.3388 14.28C53.3388 14.28 53.1468 14.44 53.0828 14.504C53.0508 14.504 53.0188 14.568 52.9868 14.6L52.8588 14.728C52.8588 14.76 52.7948 14.856 52.7628 14.888ZM55.1308 21.48V21.736L55.1948 22.376C55.1628 22.344 55.0988 22.312 55.0988 22.216C55.0988 22.184 55.1308 22.184 55.1308 22.12C55.1308 22.056 55.0988 21.96 55.0668 21.8C55.0668 21.768 55.0988 21.608 55.1308 21.48ZM56.5708 14.856C56.5708 14.76 56.6028 14.696 56.6028 14.632C56.6348 14.536 56.6988 14.44 56.7948 14.376L56.6667 14.792C56.6667 14.824 56.6028 14.856 56.5708 14.856ZM60.6988 16.584L60.5388 16.808C60.4748 16.872 60.4108 16.936 60.3468 16.936C60.3468 16.904 60.3788 16.872 60.4108 16.84L60.7308 16.392C60.6988 16.456 60.6988 16.52 60.6988 16.584ZM55.8668 16.168C55.8668 16.168 55.8668 16.264 55.7388 16.392C55.7388 16.392 55.6748 16.136 55.6748 16.072L55.7708 16.168C55.8988 16.136 55.8668 16.168 55.8668 16.168ZM61.6588 15.72L61.5308 15.944C61.5308 15.944 61.5308 15.976 61.3068 16.232L61.4028 16.008C61.4028 15.944 61.5628 15.816 61.6588 15.72ZM53.3388 13.8L53.3068 13.928L53.0188 13.96C53.0508 13.896 53.2428 13.8 53.3388 13.8ZM54.2348 20.52C54.2348 20.52 54.1388 20.744 54.1388 20.712C54.1388 20.712 54.1068 20.712 54.0748 20.616L54.0108 20.776C53.9788 20.744 53.9788 20.68 53.9148 20.616H54.0748C54.1068 20.616 54.2028 20.488 54.2348 20.52ZM53.7548 19.912C53.7868 19.848 53.8188 19.816 53.8828 19.816C53.8188 19.944 53.8188 19.976 53.7868 19.976C53.8508 20.008 53.8508 20.072 53.8508 20.072C53.8508 20.136 53.7548 20.232 53.7548 20.232C53.7548 20.232 53.7868 20.136 53.7868 20.072C53.7868 20.04 53.7548 19.976 53.7548 19.912ZM56.5068 15.336C56.5068 15.272 56.4427 15.24 56.4427 15.24L56.5068 15.016L56.6348 15.048C56.6028 15.144 56.5068 15.208 56.5068 15.336ZM55.3868 15.912C55.3868 15.944 55.4188 16.04 55.4188 16.072C55.4188 16.104 55.3868 16.168 55.3548 16.296C55.3228 16.264 55.3228 16.2 55.3228 16.136V16.008C55.3228 15.976 55.3868 15.944 55.3868 15.912ZM51.1948 17.224C51.1948 17.224 51.0988 17.16 51.0668 17.16L51.2588 17C51.2588 17.128 51.2268 17.192 51.1948 17.224ZM51.9628 15.624L51.7708 15.912L51.8348 15.72C51.8348 15.688 51.8988 15.656 51.9628 15.624ZM53.9468 21.48C53.9148 21.448 53.9148 21.416 53.9148 21.384C53.9148 21.352 54.0108 21.288 54.0428 21.288C54.0108 21.352 53.9468 21.416 53.9468 21.48ZM54.5548 21C54.5548 21.032 54.5228 21.064 54.4908 21.096L54.5228 20.872C54.5548 20.904 54.5548 20.968 54.5548 21ZM62.566 20.424V20.072C62.566 18.824 63.078 16.872 63.27 16.424C63.302 16.392 63.43 16.296 63.462 16.296H63.846C65.414 16.296 67.398 14.952 67.462 12.808V12.648C67.462 11.784 65.51 11.08 64.87 11.016C62.214 11.688 60.326 15.816 60.134 18.408C60.134 18.6 60.102 18.824 60.102 19.016C60.102 20.712 61.286 22.536 63.014 22.536C65.318 22.536 68.262 18.312 69.222 16.968L69.99 15.88C70.054 15.816 70.63 14.888 70.566 14.888C70.438 14.888 70.534 14.728 70.406 14.664C70.406 14.6 70.31 14.344 70.278 14.376L70.15 14.568C70.182 14.408 70.246 14.152 70.214 14.184C70.15 14.248 70.086 14.312 70.054 14.376L70.086 14.056C69.414 14.824 68.454 16.168 67.526 17.384C66.726 18.376 64.262 21.416 63.174 21.416C62.854 21.416 62.598 20.936 62.566 20.424ZM65.83 12.584C65.862 12.648 65.958 12.616 65.958 12.712C65.958 13.608 64.838 14.824 63.878 15.048L64.038 14.76C64.71 13.544 65.158 13.096 65.83 12.584ZM62.534 18.248C62.534 18.248 62.566 18.088 62.566 18.024C62.566 17.928 62.534 17.896 62.502 17.864L62.406 18.376C62.438 17.672 62.662 17.032 62.854 16.424C62.854 16.424 62.918 16.328 62.95 16.328C62.95 16.328 62.662 17.192 62.598 17.448L62.502 17.864C62.534 17.8 62.566 17.8 62.598 17.8C62.63 17.8 62.662 17.704 62.662 17.704C62.662 17.608 62.758 17.352 62.79 17.352C62.822 17.32 62.854 17.16 62.854 17.16C62.854 17.16 62.79 17.256 62.79 17.224L62.95 16.808C62.982 16.68 63.078 16.456 63.142 16.328C62.886 17.096 62.534 18.312 62.438 19.208C62.438 18.824 62.534 18.248 62.534 18.248ZM62.022 20.136C62.022 20.136 61.894 20.168 61.862 20.168V19.88C62.022 19.976 62.022 20.072 62.022 20.136ZM62.246 19.432C62.246 19.592 62.246 19.848 62.182 19.848C62.182 19.848 62.182 19.816 62.118 19.592C62.118 19.56 62.182 19.528 62.246 19.432ZM63.654 14.888L63.558 14.728C63.59 14.728 63.654 14.632 63.686 14.632C63.686 14.632 63.878 14.664 63.878 14.696C63.686 14.696 63.654 14.824 63.654 14.888ZM68.838 17.128C68.838 17.128 68.838 17.096 68.966 17.096C68.966 17.192 68.742 17.32 68.742 17.288C68.742 17.256 68.774 17.224 68.806 17.224C68.806 17.224 68.838 17.192 68.838 17.128ZM63.942 14.504V14.344C63.942 14.344 64.038 14.344 64.038 14.408C64.038 14.44 64.006 14.472 63.942 14.504ZM76.515 15.08C76.483 15.08 76.419 15.176 76.387 15.176L76.515 14.6C76.419 14.664 76.291 14.824 76.131 15.016L76.451 14.408L76.483 14.184L76.387 14.312C76.483 14.056 76.547 13.768 76.547 13.736C75.427 15.208 72.163 19.944 70.947 20.68C70.883 20.712 70.787 20.744 70.691 20.744C70.659 20.744 70.627 20.136 70.627 19.976L70.659 19.688C70.787 18.76 71.075 17.768 71.459 16.68L71.555 16.456C71.939 15.464 72.547 14.088 72.579 13.416V13.288C72.579 12.424 72.227 12.2 71.395 11.944C71.331 11.944 71.203 11.816 71.107 11.816C70.851 11.816 70.723 11.912 70.659 12.136C69.891 14.312 68.355 16.52 68.355 18.984C68.355 19.912 68.483 21.096 69.315 21.48C69.507 21.544 69.731 21.768 69.891 21.768C69.955 21.928 70.531 21.928 70.531 21.928C71.747 21.928 73.539 19.784 74.147 18.952L76.739 15.336C76.739 15.304 76.867 15.144 76.867 15.048C76.867 14.984 76.771 15.144 76.739 15.144C76.739 15.144 76.355 15.592 76.131 15.912L76.515 15.08ZM72.835 9.32C72.707 9.416 71.491 9.256 71.491 10.152C71.491 10.312 71.523 10.536 71.683 10.792C71.779 11.016 72.003 11.048 72.291 11.176C72.419 11.208 72.483 11.208 72.579 11.208C72.835 11.208 73.187 11.144 73.411 10.92C73.667 10.696 73.827 10.632 73.987 10.152C73.987 9.736 73.283 9.32 72.835 9.32ZM72.707 19.816C72.675 19.784 72.771 19.752 72.803 19.72C72.803 19.752 72.835 19.816 72.835 19.848C72.835 19.976 72.611 20.2 72.387 20.392C72.419 20.296 72.419 20.2 72.483 20.168L72.675 20.04C72.707 20.008 72.707 19.848 72.707 19.816ZM70.179 18.76L70.275 18.696C70.275 18.792 70.275 18.824 70.243 19.304C70.243 19.368 70.211 19.4 70.147 19.464C70.147 19.368 70.179 19.176 70.179 19.144V18.76ZM69.571 16.904C69.571 16.968 69.411 17.16 69.379 17.16C69.379 17.16 69.315 17.128 69.283 17.096C69.315 17 69.379 16.872 69.475 16.872C69.507 16.872 69.539 16.904 69.571 16.904ZM70.179 18.472C70.083 18.472 70.051 18.472 70.051 18.44C70.051 18.44 70.115 18.344 70.115 18.312C70.115 18.184 70.179 18.12 70.243 18.088C70.211 18.12 70.211 18.184 70.211 18.216V18.376C70.211 18.44 70.211 18.472 70.179 18.472ZM73.827 18.664C73.731 18.728 73.635 19.08 73.603 19.048C73.603 19.048 73.571 18.92 73.571 18.888C73.571 18.792 73.699 18.728 73.827 18.664ZM71.619 21.384C71.555 21.416 71.267 21.576 71.267 21.576C71.267 21.512 71.587 21.32 71.683 21.288C71.747 21.224 71.747 21.256 71.843 21.192C71.843 21.192 71.715 21.352 71.619 21.384ZM69.283 16.872C69.283 16.808 69.315 16.776 69.315 16.744C69.315 16.712 69.283 16.712 69.219 16.712C69.219 16.648 69.315 16.552 69.315 16.52C69.347 16.52 69.411 16.552 69.411 16.616C69.411 16.68 69.347 16.744 69.283 16.872ZM70.435 18.408C70.467 18.344 70.467 18.536 70.531 18.536C70.563 18.504 70.499 18.76 70.371 18.888C70.435 18.76 70.435 18.44 70.435 18.408ZM70.403 17.896C70.403 17.864 70.435 17.8 70.467 17.768C70.467 17.736 70.531 17.704 70.595 17.704C70.595 17.8 70.499 17.896 70.403 17.896ZM73.379 19.208L73.507 19.144L73.315 19.432L73.379 19.208ZM70.531 17.992C70.563 17.96 70.563 17.928 70.659 17.928C70.627 17.992 70.627 18.056 70.563 18.088C70.563 18.056 70.563 17.992 70.531 17.992ZM72.995 19.368C72.995 19.432 72.931 19.496 72.931 19.464C72.931 19.4 72.995 19.368 72.995 19.304C73.027 19.304 73.091 19.272 73.123 19.24C73.091 19.272 73.059 19.336 72.995 19.368ZM82.695 13.992C82.695 13.96 82.663 13.896 82.663 13.832C82.663 13.768 82.695 13.736 82.791 13.736C84.263 11.24 85.927 9.192 87.591 7.624C90.183 5.192 92.679 3.912 94.119 3.912C94.407 3.912 95.271 4.168 95.559 5.032C95.559 5.288 95.559 5.352 95.591 5.384C95.687 5.672 95.687 5.896 95.687 6.056V6.216C95.751 6.6 95.879 6.632 96.007 6.632C96.103 6.632 96.199 6.6 96.263 6.6C96.295 6.6 96.327 6.568 96.359 6.568C96.903 6.408 97.351 5.64 97.383 5.224C97.287 3.368 94.375 1.992 92.775 1.992C88.519 1.992 83.495 7.752 82.759 8.904C82.727 8.936 82.887 8.872 82.983 8.872C82.951 8.84 83.143 8.84 83.143 8.84C83.143 8.968 83.047 9 82.983 9C82.919 9 82.855 8.968 82.791 8.968C82.727 8.968 82.663 9 82.663 9.096C82.663 9.064 82.695 9.032 82.759 9.032C82.631 9.16 82.631 9.256 82.535 9.256C82.535 9.224 82.599 9.128 82.567 9.128C82.471 9.128 82.439 9.32 82.343 9.416C82.343 9.512 82.215 9.544 82.215 9.576C82.215 9.608 82.119 9.64 82.151 9.672C82.183 9.672 82.183 9.8 82.183 9.8C82.055 9.96 81.991 9.896 81.959 9.992C81.831 10.12 81.703 10.312 81.575 10.504C81.575 10.536 81.639 10.76 81.639 10.856C81.575 10.696 81.479 10.664 81.479 10.664C81.479 10.664 81.383 10.76 81.255 10.92C80.007 12.68 78.599 15.88 78.599 18.344V18.632C78.663 19.528 80.071 20.872 81.191 20.872C82.343 20.872 85.095 19.048 87.975 16.808C88.103 16.776 89.319 15.848 89.479 15.624C89.671 15.496 89.831 15.304 90.055 15.144C90.183 15.144 90.215 15.048 90.311 14.984C90.311 14.888 90.471 14.888 90.503 14.824C90.567 14.792 90.567 14.76 90.567 14.728C90.535 14.728 90.407 14.792 90.343 14.792C90.343 14.76 90.791 14.376 90.855 14.344C90.855 14.344 91.143 14.216 91.207 14.088C91.239 14.024 91.303 14.024 91.399 13.992L91.623 13.736C91.687 13.672 91.687 13.544 91.751 13.544C91.911 13.544 91.975 13.512 92.007 13.48C92.007 13.416 92.135 13.32 92.135 13.352L92.263 13.224C92.263 13.224 92.391 13.16 92.423 13.064L92.647 12.936C92.711 12.84 92.871 12.712 92.935 12.712C93.159 12.616 93.191 12.52 93.351 12.36C93.351 12.68 93.063 14.344 92.807 15.048C90.407 16.68 87.207 19.72 84.775 23.016C83.687 24.456 81.703 27.656 81.607 29.768C81.575 29.864 81.575 29.928 81.575 30.024C81.575 30.12 81.575 30.216 81.607 30.28C81.607 30.376 81.831 30.472 81.831 30.536C81.895 30.632 82.407 30.984 82.471 31.048C82.503 31.08 82.663 31.08 82.695 31.112L82.983 31.304C83.111 31.368 83.207 31.432 83.335 31.464L83.879 31.56H84.199C84.263 31.56 84.327 31.528 84.359 31.4C84.455 31.4 84.391 31.592 84.519 31.592C84.583 31.592 84.839 31.4 84.903 31.4C85.127 31.4 85.383 31.4 85.511 31.112C85.479 31.08 85.447 30.92 85.383 30.92C85.319 30.92 85.319 30.984 85.223 30.984C85.319 30.92 85.319 30.824 85.319 30.824C85.415 30.824 85.575 31.048 85.671 31.048C85.703 31.048 85.735 31.016 85.799 31.016C85.831 30.984 85.895 30.92 85.927 30.92C85.927 30.888 85.959 30.856 85.991 30.856L86.119 30.92L86.343 30.856C86.439 30.856 86.599 30.792 86.599 30.728C86.599 30.696 86.535 30.632 86.375 30.632C86.503 30.568 86.887 30.344 86.983 30.344C87.175 30.344 87.751 29.96 88.071 29.576C88.199 29.448 88.487 29.256 88.455 29.256C88.423 29.224 88.391 29.224 88.359 29.224C88.327 29.224 88.263 29.224 88.199 29.16C88.295 29.16 88.359 29.064 88.391 28.936C88.391 28.968 88.455 29.032 88.551 29.032C88.551 29.032 88.519 28.968 88.519 28.904C88.519 28.808 88.551 28.776 88.583 28.776C88.647 28.776 88.711 28.84 88.775 28.84C88.871 28.84 88.903 28.776 88.903 28.712C88.903 28.68 88.839 28.616 88.839 28.584C88.935 28.36 89.127 28.264 89.223 28.168C89.223 28.264 89.127 28.264 89.127 28.36C89.319 28.168 89.383 28.296 89.415 27.912L89.607 27.784C89.799 27.784 89.703 27.528 89.831 27.528L89.959 27.4C89.959 27.368 89.959 27.336 89.863 27.336L90.183 27.176C92.871 23.272 94.055 20.776 95.303 15.848C96.391 15.016 98.983 13.736 100.327 13.48C100.423 13.448 100.519 13.384 100.519 13.32C100.519 13.288 100.327 13.032 100.327 12.904C100.295 12.712 100.007 12.616 99.623 12.616C99.367 12.616 99.047 12.648 98.823 12.712C98.055 12.872 97.255 13.064 95.623 13.8C95.623 13.8 95.815 12.52 95.815 12.392C95.815 12.232 95.879 12.008 95.879 11.816C95.879 11.464 95.751 11.112 95.591 10.984C95.303 10.696 95.047 10.472 94.791 10.472C94.695 10.472 93.991 10.504 93.831 10.504C93.639 10.504 93.447 10.568 93.351 10.76C92.231 11.144 89.607 13.224 87.911 14.568L85.799 16.264C84.647 17.192 81.511 19.464 81.063 19.464C81.031 19.464 80.999 19.4 80.967 19.304C80.935 19.24 80.935 19.144 80.935 19.016C80.935 18.248 81.447 16.776 81.543 16.552V16.424C81.543 16.36 81.575 16.296 81.607 16.264C81.607 16.232 81.671 16.168 81.671 16.136L81.959 15.4H81.927C82.151 14.92 82.439 14.344 82.695 13.992ZM88.487 21.608C88.551 21.512 88.711 21.48 88.807 21.32C88.807 21.288 88.807 21.224 88.839 21.16L89.127 20.872C89.223 20.808 89.319 20.648 89.447 20.552L90.343 19.624L90.407 19.432L92.199 17.736L92.103 18.056C90.887 21.576 87.655 28.424 84.039 30.216L83.495 30.344C83.463 30.344 83.271 30.216 83.271 30.184V29.992C83.303 29.736 83.335 29.48 83.527 29.064L83.399 29C83.399 28.968 83.463 28.872 83.463 28.84C83.463 28.776 83.559 28.712 83.591 28.648C83.591 28.712 83.591 28.744 83.655 28.84C84.551 26.888 86.183 24.424 88.039 22.12L88.487 21.608ZM80.839 18.184C80.839 18.184 80.935 18.28 80.935 18.312C80.903 18.76 80.743 18.728 80.743 19.048C80.711 18.984 80.743 18.856 80.615 18.856C80.647 18.824 80.647 18.792 80.647 18.76V18.536C80.711 18.536 80.743 18.664 80.775 18.664C80.775 18.664 80.807 18.632 80.839 18.504V18.184ZM89.895 13.96C90.119 13.672 90.343 13.544 90.567 13.544C90.503 13.608 90.471 13.608 90.439 13.608C90.439 13.608 90.119 13.928 89.895 13.96ZM80.679 17.448C80.679 17.48 80.679 17.512 80.583 17.512C80.583 17.352 80.647 17.224 80.711 17.128C80.743 17.16 80.903 17 80.903 16.808C80.935 16.808 80.935 16.872 80.935 16.936L80.679 17.448ZM92.487 15.976C92.519 16.04 92.263 16.392 92.295 16.392C92.295 16.424 92.199 16.648 92.103 16.648C92.071 16.648 92.039 16.648 92.007 16.616C92.007 16.488 92.071 16.488 92.103 16.488C92.135 16.488 92.423 16.136 92.487 15.976ZM91.783 17.128L91.719 17.32C91.687 17.256 91.687 17.224 91.687 17.192C91.687 17.128 91.719 17.096 91.815 17.032C91.783 17.032 91.911 17.128 91.911 17.352C91.911 17.352 91.847 17.384 91.783 17.384V17.128ZM91.687 12.808C91.655 12.808 91.591 12.904 91.559 12.936C91.527 12.936 91.527 12.84 91.527 12.808C91.527 12.84 91.783 12.584 91.975 12.584C91.879 12.712 91.783 12.712 91.687 12.808ZM85.991 29.64C86.023 29.544 86.119 29.544 86.215 29.416C86.215 29.416 86.215 29.544 86.343 29.544C86.279 29.576 86.183 29.672 86.087 29.672C86.055 29.672 86.023 29.672 85.991 29.64ZM88.135 16.136C88.135 16.072 88.167 15.976 88.263 15.944C88.359 15.912 88.615 15.752 88.583 15.752C88.583 15.752 88.551 15.816 88.455 15.944L88.135 16.136ZM87.303 29.544C87.271 29.576 86.951 29.704 86.919 29.704C86.919 29.704 87.175 29.48 87.175 29.448C87.175 29.416 87.239 29.544 87.303 29.544ZM80.967 15.368C80.967 15.336 80.903 15.24 80.839 15.24C80.871 15.176 80.903 15.016 80.903 15.08C80.903 15.08 80.935 15.08 80.999 15.016L80.967 15.368ZM89.319 27.848C89.383 27.752 89.351 27.72 89.511 27.624C89.511 27.848 89.351 27.848 89.319 27.848ZM80.775 15.624C80.807 15.656 80.839 15.72 80.967 15.72C80.967 15.784 80.935 15.784 80.775 15.784V15.624ZM88.295 26.44C88.295 26.568 88.199 26.568 88.199 26.568C88.199 26.536 88.199 26.472 88.231 26.44C88.263 26.44 88.327 26.408 88.455 26.312C88.455 26.44 88.295 26.44 88.295 26.44ZM81.319 16.2C81.319 16.168 81.319 16.104 81.383 16.104C81.415 16.104 81.415 16.2 81.415 16.328C81.351 16.296 81.319 16.264 81.319 16.2ZM81.543 13.8C81.543 13.8 81.543 13.896 81.415 13.896L81.319 13.8H81.543ZM83.591 8.424C83.591 8.648 83.559 8.584 83.527 8.616C83.527 8.584 83.495 8.552 83.495 8.488C83.495 8.456 83.527 8.424 83.591 8.424ZM81.127 14.6C81.223 14.504 81.255 14.44 81.287 14.44C81.287 14.472 81.319 14.568 81.319 14.568C81.255 14.568 81.191 14.6 81.127 14.6ZM89.703 18.44C89.703 18.44 89.639 18.504 89.607 18.504C89.607 18.504 89.511 18.408 89.511 18.376C89.511 18.344 89.639 18.44 89.703 18.44ZM84.007 8.104C83.911 8.168 83.911 8.2 83.879 8.2C83.847 8.2 83.815 8.168 83.815 8.104H84.007ZM80.999 16.456C80.999 16.424 80.967 16.392 80.967 16.36C80.967 16.328 81.031 16.328 81.127 16.328L80.999 16.456ZM90.727 17.64C90.727 17.64 90.791 17.64 90.791 17.704C90.791 17.704 90.791 17.736 90.695 17.864L90.727 17.64ZM86.055 30.472H86.215C86.183 30.472 86.183 30.568 86.151 30.568L86.055 30.472ZM82.759 10.28C82.759 10.344 82.727 10.344 82.695 10.344C82.663 10.344 82.631 10.344 82.599 10.28H82.759ZM104.242 21C104.242 21 104.21 21 104.146 20.744C104.146 19.208 105.362 13.736 105.906 12.872C106.098 12.52 106.194 11.848 106.226 11.528C106.226 11.304 105.618 10.824 105.138 10.824H105.01L104.754 10.696C104.242 10.728 103.986 11.432 103.826 11.624C103.378 11.528 102.706 11.144 102.386 11.144C100.178 11.144 97.3298 15.336 96.9458 17.48V17.896C96.8498 17.96 96.8498 18.024 96.8498 18.184V18.472C96.8498 18.664 96.7538 18.824 96.7538 18.952C96.7538 19.016 96.7858 19.048 96.8178 19.112V19.368C96.8498 19.432 96.8818 19.528 96.8818 19.528C97.1698 20.424 97.3938 20.296 97.8738 20.552C98.0018 20.616 98.5458 20.968 98.6418 20.968C100.018 20.808 101.49 18.024 102.29 16.776C102.098 17.64 101.938 18.504 101.938 19.56V19.848C101.938 20.648 102.354 21.48 103.058 21.736C103.282 21.832 103.442 21.992 103.634 21.992C103.762 21.992 104.146 22.024 104.242 22.024C104.274 22.024 104.434 22.024 104.498 21.992C104.882 21.864 105.234 21.64 105.522 21.384C106.674 20.36 108.466 17.544 108.978 16.712L109.874 15.272L109.906 15.016L109.842 14.76L109.682 14.824L109.778 14.664L109.81 14.44L109.554 14.792L109.682 13.768C108.754 15.08 105.394 20.456 104.242 21ZM103.122 13.128C102.418 13.992 101.234 15.88 100.338 17.256C98.9298 19.432 98.9938 19.304 98.8978 19.432C98.8338 19.496 98.7378 19.528 98.7378 19.528L98.8338 19.24C98.8338 19.112 98.8338 18.984 98.8978 18.824C99.1858 17.96 99.7938 16.584 100.402 15.688C101.234 14.408 102.29 13.224 102.802 13.16C102.866 13.16 103.026 13.128 103.122 13.128ZM104.21 18.28C104.21 18.056 104.338 17.96 104.37 17.736C104.434 17.064 105.106 14.152 105.394 13.864C104.85 15.432 104.146 18.536 104.018 20.136V19.976C104.018 19.912 104.05 19.848 104.05 19.784C104.114 19.336 104.082 18.92 104.21 18.472V18.28ZM104.37 15.208C104.21 15.208 104.274 15.24 104.242 15.24L104.402 14.632V14.92C104.402 14.984 104.37 15.144 104.37 15.208ZM103.698 17.576C103.826 17.64 103.826 17.672 103.826 17.704C103.826 17.864 103.794 17.896 103.698 17.896V17.576ZM97.7138 16.04C97.6818 16.168 97.5858 16.456 97.4578 16.488C97.5218 16.328 97.5858 16.136 97.7138 16.04ZM104.274 15.848C104.274 15.88 104.306 15.912 104.306 15.944C104.306 15.976 104.242 16.008 104.242 16.04C104.242 16.104 104.242 16.2 104.178 16.296L104.082 16.392C104.178 16.136 104.178 16.008 104.274 15.848ZM104.05 18.344C104.018 18.312 104.018 18.248 104.018 18.216C104.018 18.184 104.018 18.088 104.05 18.056C104.082 18.024 104.114 17.928 104.114 17.864C104.114 17.768 104.082 17.736 104.114 17.736L104.178 17.928C104.114 18.088 104.05 18.152 104.05 18.344ZM103.826 18.856C103.922 18.76 103.922 18.664 103.954 18.504L103.986 18.792C103.954 18.824 103.954 18.92 103.954 18.952C103.922 18.952 103.89 18.92 103.826 18.856ZM97.6178 15.976C97.7138 15.912 97.6818 15.784 97.7458 15.784L97.7138 16.04C97.6818 16.008 97.6497 15.976 97.6178 15.976ZM104.306 17.672C104.274 17.704 104.21 17.832 104.178 17.832C104.146 17.832 104.21 17.704 104.21 17.704C104.242 17.704 104.242 17.672 104.306 17.672ZM116.591 14.344C116.399 14.376 116.335 14.504 116.207 14.696C115.439 15.656 112.271 20.616 110.511 21.96C110.447 21.992 110.383 22.024 110.351 22.024C110.223 22.024 110.287 21.864 110.223 21.64V21.512C110.223 19.144 111.727 14.952 112.495 12.84C113.359 10.344 113.871 8.84 114.415 6.408C114.447 6.312 114.447 6.216 114.447 6.088C114.447 5.992 114.447 5.896 114.383 5.8C114.383 5.224 113.999 4.712 113.359 4.488C113.327 4.392 113.263 4.328 113.167 4.328C112.975 4.328 112.847 4.424 112.751 4.584C111.503 8.456 109.679 13.064 108.815 15.912C108.463 17.064 107.983 18.6 107.983 20.008V20.392C108.015 21.32 108.239 22.568 108.623 22.568C108.303 22.12 108.175 21.288 108.143 20.584V19.976C108.143 19.464 108.175 19.112 108.239 18.664C108.239 18.632 108.239 18.6 108.271 18.536C108.271 18.632 108.367 18.76 108.367 18.76C108.271 19.176 108.303 19.368 108.271 19.624V19.816C108.271 20.04 108.239 20.104 108.239 20.2C108.239 20.296 108.271 20.296 108.303 20.392C108.335 20.36 108.399 20.36 108.431 20.36C108.431 20.488 108.431 20.616 108.367 20.712C108.335 20.648 108.335 20.584 108.335 20.52C108.271 20.648 108.239 20.744 108.239 20.84C108.303 21.096 108.271 22.152 108.911 22.76C109.103 22.952 109.647 23.112 109.839 23.272C109.935 23.336 110.031 23.336 110.095 23.336C110.511 23.336 110.351 23.24 110.639 23.176C112.271 22.6 114.863 18.632 115.855 17.032C115.791 17.032 115.759 17.096 115.727 17.16C115.663 17.16 115.631 17.128 115.567 17.096C115.951 17 116.335 16.296 116.559 15.976C116.783 15.592 116.847 15.464 116.847 15.432C116.847 15.368 116.751 15.528 116.687 15.528L116.527 15.304C116.623 15.144 116.687 15.016 116.687 14.984C116.687 14.984 116.719 14.824 116.719 14.792L116.527 15.08L116.431 14.6L116.591 14.344ZM109.871 21.416L109.807 21.32V20.808L109.935 20.264C109.935 20.52 109.935 20.744 109.871 20.936V21.416ZM109.135 15.752C109.135 15.752 109.135 15.88 109.103 15.88L108.975 15.944C109.039 15.688 109.071 15.464 109.199 15.272L109.135 15.752ZM110.159 17.8C110.223 17.8 110.255 17.768 110.319 17.704C110.287 17.8 110.255 17.96 110.255 18.024V18.152C110.255 18.184 110.223 18.216 110.191 18.248C110.191 18.024 110.159 17.896 110.159 17.8ZM110.543 16.584C110.575 16.488 110.575 16.392 110.671 16.36C110.671 16.456 110.639 16.52 110.607 16.552L110.543 16.744L110.607 16.84H110.383C110.479 16.808 110.543 16.584 110.543 16.584ZM111.535 22.088C111.631 22.056 111.663 22.024 111.695 22.024C111.631 22.088 111.503 22.216 111.503 22.28C111.439 22.312 111.279 22.504 111.215 22.504L111.471 22.248C111.471 22.184 111.503 22.12 111.535 22.088ZM108.879 16.52C108.879 16.648 108.815 16.776 108.815 16.872C108.783 16.84 108.751 16.776 108.751 16.712C108.751 16.616 108.815 16.552 108.879 16.52ZM108.495 21.032C108.495 21.128 108.527 21.224 108.527 21.32L108.463 21.48C108.431 21.448 108.431 21.416 108.431 21.384L108.495 21.032ZM108.975 16.136C108.975 16.2 108.975 16.264 108.911 16.328C108.879 16.328 108.879 16.264 108.879 16.232C108.879 16.168 108.911 16.136 108.975 16.136ZM110.287 17.192L110.255 17.064C110.255 16.968 110.351 16.936 110.351 16.936L110.287 17.192ZM112.431 20.36C112.431 20.296 112.495 20.232 112.495 20.264C112.495 20.328 112.431 20.36 112.431 20.424C112.399 20.424 112.335 20.456 112.303 20.488C112.335 20.456 112.367 20.392 112.431 20.36ZM116.963 21.96C116.931 22.056 116.931 22.088 116.931 22.184C116.931 22.184 116.931 22.184 116.867 22.664C116.835 22.696 116.835 22.792 116.835 22.888V24.008C116.867 24.008 116.867 23.88 116.867 23.816L116.931 23.272C117.539 16.712 120.291 11.88 121.379 5.864L121.411 5.512C121.443 5.256 121.475 4.968 121.475 4.712V4.424C121.475 4.04 120.675 3.624 120.195 3.56C120.131 3.528 120.099 3.528 120.035 3.528C119.939 3.528 119.811 3.592 119.715 3.688C119.683 4.136 119.523 4.616 119.395 5.096C119.075 6.216 118.851 7.336 116.803 12.968C115.811 15.784 115.267 17.96 114.979 19.976V20.136C114.979 20.168 114.947 20.232 114.947 20.264C114.883 20.744 114.819 21.352 114.787 21.992V22.504C114.787 23.24 114.947 23.944 115.331 24.168C115.491 24.136 115.491 24.104 115.491 24.04C115.491 23.88 115.491 23.784 115.587 23.784C115.619 23.816 115.683 23.848 115.715 23.848C115.779 23.848 115.875 23.816 115.875 23.784H116.323L116.547 24.008C116.579 24.04 116.611 24.104 116.643 24.104C116.611 24.072 116.579 23.88 116.579 23.848C116.579 23.688 116.643 23.368 116.675 23.208C116.707 23.08 116.771 22.952 116.771 22.824L116.803 22.216C116.835 22.184 116.835 22.12 116.835 22.056C116.835 21.992 116.835 21.896 116.867 21.832C116.899 21.736 116.899 21.704 116.899 21.672C116.899 21.608 116.931 21.608 116.931 21.576C116.931 21.128 116.963 21.448 117.059 20.84C117.059 20.808 117.187 20.584 117.155 20.616C117.155 20.776 117.091 20.904 117.091 21C117.091 21.16 117.027 21.256 117.027 21.32C116.995 21.448 116.963 21.704 116.963 21.96ZM116.803 23.688C116.771 23.592 116.771 23.528 116.771 23.464V23.08C116.739 23.208 116.739 23.368 116.739 23.528V23.976L116.803 23.688ZM115.363 19.624C115.363 19.528 115.427 19.432 115.459 19.304C115.459 19.592 115.427 19.976 115.427 19.944C115.427 19.848 115.363 19.752 115.363 19.624ZM115.587 21.16C115.651 21.16 115.651 21.224 115.651 21.384C115.651 21.448 115.555 21.576 115.523 21.736L115.587 21.16ZM128.578 15.08C128.546 15.08 128.482 15.176 128.45 15.176L128.578 14.6C128.482 14.664 128.354 14.824 128.194 15.016L128.514 14.408L128.546 14.184L128.45 14.312C128.546 14.056 128.61 13.768 128.61 13.736C127.49 15.208 124.226 19.944 123.01 20.68C122.946 20.712 122.85 20.744 122.754 20.744C122.722 20.744 122.69 20.136 122.69 19.976L122.722 19.688C122.85 18.76 123.138 17.768 123.522 16.68L123.618 16.456C124.002 15.464 124.61 14.088 124.641 13.416V13.288C124.641 12.424 124.29 12.2 123.458 11.944C123.394 11.944 123.266 11.816 123.17 11.816C122.914 11.816 122.786 11.912 122.722 12.136C121.954 14.312 120.418 16.52 120.418 18.984C120.418 19.912 120.546 21.096 121.378 21.48C121.57 21.544 121.794 21.768 121.954 21.768C122.018 21.928 122.594 21.928 122.594 21.928C123.81 21.928 125.602 19.784 126.21 18.952L128.802 15.336C128.802 15.304 128.93 15.144 128.93 15.048C128.93 14.984 128.834 15.144 128.802 15.144C128.802 15.144 128.418 15.592 128.194 15.912L128.578 15.08ZM124.898 9.32C124.77 9.416 123.554 9.256 123.554 10.152C123.554 10.312 123.586 10.536 123.746 10.792C123.842 11.016 124.066 11.048 124.354 11.176C124.482 11.208 124.546 11.208 124.641 11.208C124.898 11.208 125.25 11.144 125.474 10.92C125.73 10.696 125.89 10.632 126.05 10.152C126.05 9.736 125.346 9.32 124.898 9.32ZM124.77 19.816C124.738 19.784 124.834 19.752 124.866 19.72C124.866 19.752 124.898 19.816 124.898 19.848C124.898 19.976 124.674 20.2 124.45 20.392C124.482 20.296 124.482 20.2 124.546 20.168L124.738 20.04C124.77 20.008 124.77 19.848 124.77 19.816ZM122.242 18.76L122.338 18.696C122.338 18.792 122.338 18.824 122.306 19.304C122.306 19.368 122.274 19.4 122.21 19.464C122.21 19.368 122.242 19.176 122.242 19.144V18.76ZM121.634 16.904C121.634 16.968 121.474 17.16 121.442 17.16C121.442 17.16 121.378 17.128 121.346 17.096C121.378 17 121.442 16.872 121.538 16.872C121.57 16.872 121.602 16.904 121.634 16.904ZM122.242 18.472C122.146 18.472 122.114 18.472 122.114 18.44C122.114 18.44 122.178 18.344 122.178 18.312C122.178 18.184 122.242 18.12 122.306 18.088C122.274 18.12 122.274 18.184 122.274 18.216V18.376C122.274 18.44 122.274 18.472 122.242 18.472ZM125.89 18.664C125.794 18.728 125.698 19.08 125.666 19.048C125.666 19.048 125.634 18.92 125.634 18.888C125.634 18.792 125.762 18.728 125.89 18.664ZM123.682 21.384C123.618 21.416 123.33 21.576 123.33 21.576C123.33 21.512 123.65 21.32 123.746 21.288C123.81 21.224 123.81 21.256 123.906 21.192C123.906 21.192 123.778 21.352 123.682 21.384ZM121.346 16.872C121.346 16.808 121.378 16.776 121.378 16.744C121.378 16.712 121.346 16.712 121.282 16.712C121.282 16.648 121.378 16.552 121.378 16.52C121.41 16.52 121.474 16.552 121.474 16.616C121.474 16.68 121.41 16.744 121.346 16.872ZM122.498 18.408C122.53 18.344 122.53 18.536 122.594 18.536C122.626 18.504 122.562 18.76 122.434 18.888C122.498 18.76 122.498 18.44 122.498 18.408ZM122.466 17.896C122.466 17.864 122.498 17.8 122.53 17.768C122.53 17.736 122.594 17.704 122.658 17.704C122.658 17.8 122.562 17.896 122.466 17.896ZM125.442 19.208L125.57 19.144L125.378 19.432L125.442 19.208ZM122.594 17.992C122.626 17.96 122.626 17.928 122.722 17.928C122.69 17.992 122.69 18.056 122.626 18.088C122.626 18.056 122.626 17.992 122.594 17.992ZM125.058 19.368C125.058 19.432 124.994 19.496 124.994 19.464C124.994 19.4 125.058 19.368 125.058 19.304C125.09 19.304 125.154 19.272 125.186 19.24C125.154 19.272 125.122 19.336 125.058 19.368Z" fill="#DC0D15"/>
</svg>
