<svg width="79" height="110" viewBox="0 0 79 110" fill="none" xmlns="http://www.w3.org/2000/svg">
<path d="M68.6823 13.0617C49.6331 10.1363 30.2157 10.1363 11.1665 13.0617L0.885498 14.6416V59.8797C0.885498 95.7034 39.9233 109.17 39.9233 109.17C39.9233 109.17 78.9616 95.7051 78.9616 59.8797V14.6398L68.6806 13.0598L68.6823 13.0617Z" fill="white"/>
<path d="M39.9258 107.73C37.867 106.946 29.498 103.528 21.242 96.8761C8.66796 86.7419 2.2915 74.2931 2.2915 59.8796V15.7832L11.3893 14.3851C20.7964 12.9397 30.397 12.207 39.9236 12.207C49.4506 12.207 59.0512 12.9397 68.4579 14.3851L77.5561 15.7832V59.8775C77.5561 74.2931 71.1797 86.7398 58.6056 96.874C50.3492 103.528 41.9824 106.945 39.9219 107.728L39.9258 107.73Z" fill="#008F39"/>
<path d="M39.9255 11.4974C49.4919 11.4974 59.1328 12.2338 68.5776 13.6846L78.3025 15.1791V59.879C78.3025 67.933 76.2818 75.5001 72.2972 82.3668C69.1033 87.8703 64.6466 92.9448 59.051 97.4481C50.3013 104.489 41.4356 107.935 39.9255 108.493C38.4133 107.935 29.5493 104.489 20.7996 97.4481C15.204 92.9448 10.7473 87.8703 7.55344 82.3668C3.56924 75.5001 1.54855 67.9347 1.54855 59.879V15.1773L11.273 13.6828C20.7178 12.232 30.3587 11.4956 39.9255 11.4956V11.4974ZM39.9255 10.8647C30.3093 10.8647 20.6931 11.5956 11.1682 13.0592L0.887695 14.6391V59.877C0.887695 95.7007 39.9255 109.167 39.9255 109.167C39.9255 109.167 78.9633 95.7028 78.9633 59.877V14.6391L68.6824 13.0592C59.158 11.5956 49.5417 10.8647 39.9234 10.8647H39.9255Z" fill="#DC0D15"/>
<path d="M15.8497 35.7345C13.0023 35.7345 10.7915 33.96 10.7915 30.9184C10.7915 27.8766 12.7931 26.1768 15.9281 26.1768C17.1238 26.1768 18.2173 26.4494 18.7504 26.6113L19.0115 28.373H18.9847C18.1012 27.7767 17.1506 27.404 15.6557 27.404C14.1603 27.404 12.1587 28.2348 12.1587 30.7547C12.1587 33.0873 13.473 34.6763 15.8783 34.6763C16.9051 34.6763 17.9466 34.28 18.895 33.6346H18.9219L18.6612 35.0618C18.2056 35.3218 17.048 35.7326 15.8519 35.7326L15.8497 35.7345Z" fill="white"/>
<path d="M21.1864 30.7202L20.9924 26.3022H22.5653L22.3445 34.8291L26.5192 34.0474H26.5461L26.2849 35.6109H20.9924L21.1864 30.7202Z" fill="white"/>
<path d="M34.4842 31.6638L34.2499 26.3022H35.8232L35.6669 31.6638C35.6669 34.1837 34.3413 35.7345 31.936 35.7345C29.5303 35.7345 28.1783 34.1837 28.1783 31.6638L28.022 26.3022H29.5953L29.361 31.6638C29.361 33.6746 30.4276 34.6673 31.936 34.6673C33.4444 34.6673 34.4842 33.6746 34.4842 31.6638Z" fill="white"/>
<path d="M40.7578 26.3003C42.8261 26.3003 43.8906 27.1948 43.8906 28.422C43.8906 29.4638 43.228 30.2965 42.0964 30.5819V30.5946C43.5784 30.9165 44.1647 31.8237 44.1647 32.8036C44.1647 34.1945 43.0604 35.609 40.3156 35.609H38.2473L38.4418 30.7183L38.2473 26.3003H40.7578ZM39.7825 34.5672H40.653C41.9916 34.5672 42.7858 33.9472 42.7858 32.7055C42.7858 31.7364 41.9405 31.1292 40.8223 31.0674V30.1856C41.9024 30.0492 42.5918 29.6147 42.5918 28.7093C42.5918 27.9639 42.0072 27.4057 40.5369 27.4057H39.7691L39.6262 30.7201L39.7825 34.5672Z" fill="white"/>
<path d="M49.431 30.7202L49.2366 26.3022H52.501C55.154 26.3022 57.234 27.8167 57.234 30.7839C57.234 33.5273 55.2835 35.6127 52.2802 35.6127H49.2366L49.431 30.7221V30.7202ZM52.278 34.5673C54.3714 34.5673 55.8529 33.2019 55.8529 30.7202C55.8395 28.6476 54.4095 27.4185 52.5105 27.4185H50.7545L50.6116 30.7202L50.7679 34.5673H52.278Z" fill="white"/>
<path d="M59.5402 30.7202L59.3462 26.3022H64.4048L64.6655 27.5931H64.6391L60.8814 27.0713L60.7385 30.3239L64.1835 30.213L64.054 31.3675L60.7385 31.0075L60.8944 34.88L64.7703 34.1855H64.7972L64.5248 35.6127H59.3501L59.5441 30.7221L59.5402 30.7202Z" fill="white"/>
<path d="M66.9244 30.7202L66.73 26.3022H68.3033L68.1089 30.7202L68.3033 35.6109H66.73L66.9244 30.7202Z" fill="white"/>
<path d="M29.3378 39.2093L29.599 40.9728H29.5721C28.7264 40.402 27.8429 40.0038 26.218 40.0038C24.7231 40.0038 22.5898 40.8347 22.5898 43.3546C22.5898 45.6998 24.1116 47.2762 26.5952 47.2762C27.1418 47.2762 27.9096 47.1144 28.376 46.8908L28.1552 43.6762V43.651H29.8328L29.599 47.3872C29.0655 47.7833 27.9477 48.3306 26.4259 48.3306C23.449 48.3306 21.2378 46.618 21.2378 43.5144C21.2378 40.411 23.1749 38.7729 26.477 38.7729C27.622 38.7729 28.6882 38.9966 29.3378 39.2075V39.2093Z" fill="white"/>
<path d="M37.2915 45.5018H33.5715L32.5564 48.2072H30.8921V48.1815L35.3258 38.5874H35.781L39.9557 48.1815V48.2072H38.3426L37.2893 45.5018H37.2915ZM35.4059 40.6237L33.8841 44.671H36.9658L35.4059 40.6237Z" fill="white"/>
<path d="M41.7519 43.3182L41.5579 38.8984H43.1308L42.9099 47.4253L47.0846 46.6437H47.1115L46.8504 48.2073H41.5579L41.7519 43.3166V43.3182Z" fill="white"/>
<path d="M49.1151 43.3182L48.9207 38.8984H50.494L50.2727 47.4253L54.4479 46.6437H54.4743L54.2136 48.2073H48.9207L49.1151 43.3166V43.3182Z" fill="white"/>
<path d="M56.4801 43.3182L56.2856 38.8984H57.859L57.665 43.3182L57.859 48.209H56.2856L56.4801 43.3182Z" fill="white"/>
<path d="M58.1828 7.23057C57.1811 5.61791 55.4497 4.15437 52.7054 3.24167C52.4633 3.14531 50.1568 2.23808 46.9724 1.53084C47.1496 1.3563 47.283 1.17085 47.3037 0.8436C47.3115 0.614516 47.1704 0.381801 47.0296 0.279987C46.8217 0.118176 46.6619 0.0981773 46.5498 0.0763602C46.4562 0.0618154 46.3878 0.058179 46.3514 0.058179C46.3306 0.058179 46.306 0.058179 46.2774 0.058179C45.4182 0.0654514 44.384 0.327258 43.7574 0.53634C43.7478 0.539974 43.4469 0.634515 43.0757 0.83087C42.8432 0.954501 42.5786 1.1145 42.3365 1.33448C42.1217 1.00723 41.8432 0.756328 41.5786 0.590881C41.091 0.274533 40.638 0.163629 40.5063 0.136357C40.1504 0.0418161 39.8095 0 39.4895 0C38.5008 0 37.7581 0.414526 37.2952 0.812692C37.1678 0.923593 37.0574 1.03268 36.966 1.13449C36.8954 1.02722 36.8058 0.936323 36.7032 0.878142C36.4554 0.72906 36.2458 0.719969 36.099 0.71633C35.9886 0.71633 35.905 0.72906 35.8557 0.736329C34.5565 0.892685 31.4691 1.33812 28.4372 2.36716C25.4032 3.41257 22.3367 5.01251 21.312 7.76146V7.7651L19.4455 13.4212C19.4381 13.4503 19.1809 14.1903 19.177 15.2102C19.177 16.2429 19.4572 17.6156 20.6265 18.7119C21.794 19.8064 23.7502 20.5464 26.8812 20.5464H26.8947C27.0241 20.5464 27.1554 20.5445 27.2888 20.5427H27.3364L27.3858 20.5336C27.407 20.5282 29.8105 20.1336 31.9433 19.3555C33.6288 18.9537 34.7262 18.781 35.8821 18.7792C37.2345 18.7792 38.7295 19.0228 41.3214 19.4864C41.5271 19.5282 44.5897 20.1627 48.1608 20.1645C50.1685 20.1645 52.3451 19.9664 54.2822 19.3209C56.2076 18.6791 57.9333 17.5592 58.8701 15.7229L58.8891 15.6884L58.8969 15.6556C58.9121 15.6175 59.4759 14.083 59.4776 12.0304C59.4776 10.5741 59.1923 8.84505 58.1845 7.23239" fill="white"/>
<path d="M36.2098 3.84703L36.4801 1.80712C36.6039 1.19079 35.9565 1.32897 35.9565 1.32897C33.4421 1.62895 23.6683 3.09797 21.9122 7.9541L20.0513 13.6012C20.0513 13.6012 17.766 20.1172 27.2774 19.9372C27.2774 19.9372 29.6922 19.5372 31.7549 18.7791C35.4784 17.8846 36.6173 18.0337 41.4508 18.8936C41.4508 18.8936 55.0573 21.8062 58.3027 15.4592C58.3027 15.4592 61.4757 6.80145 52.4784 3.80885C52.4784 3.80885 49.6825 2.67072 45.9057 1.92894C46.0811 1.52168 46.3704 1.25624 46.3704 1.25624C47.0715 0.661721 46.3379 0.661721 46.3379 0.661721C45.6199 0.647178 44.5498 0.905348 43.9708 1.1017C43.9708 1.1017 42.8929 1.44532 42.4815 2.11438L42.4698 2.20347C42.4698 2.20347 42.666 3.43796 44.3727 4.03248C47.34 4.31066 50.2823 5.15605 50.2823 5.15605C59.8604 8.04319 56.2322 14.532 56.2322 14.532C53.8611 19.1718 40.2282 16.8083 40.2282 16.8083C33.0155 15.2265 29.1019 17.3137 29.1019 17.3137C20.5749 19.699 22.5882 13.0139 22.5882 13.0139L24.1594 8.42864C25.7669 4.58517 33.5357 4.29245 35.6248 4.2852C35.6248 4.2852 36.1791 4.38518 36.2038 3.84885" fill="#DC0D15"/>
<path d="M37.4815 5.07068C37.4815 5.07068 36.1654 4.20526 37.1463 1.91811C37.1463 1.91811 38.1518 0.132733 40.3479 0.716341C40.3479 0.716341 42.7003 1.16723 41.9477 3.53985C41.9477 3.53985 41.6735 4.26164 40.7671 4.26164C40.7671 4.26164 40.043 4.47799 39.5082 4.92525C39.0206 5.34159 38.1272 5.46885 37.4815 5.07251" fill="#FABC00"/>
<path d="M39.3635 5.66512C40.1789 5.36332 41.3443 4.84515 41.3443 4.84515C43.2433 4.03793 49.2369 5.8524 49.2369 5.8524C54.7182 7.20326 56.1201 9.91764 55.9694 11.8721C55.8763 13.1684 55.3146 14.1247 55.3146 14.1247C53.4918 18.1536 40.9502 16.0755 40.9502 16.0755C31.9931 14.6338 29.2198 16.4228 29.2198 16.4228C21.4532 19.2391 23.9463 12.7357 23.9463 12.7357L25.43 8.52501C27.7915 4.56699 35.3204 5.4597 35.3204 5.4597C35.3204 5.4597 37.9751 6.19418 39.3635 5.66512Z" fill="#008F39"/>
<path d="M32.4651 10.59C32.4651 10.1083 32.8787 9.71191 33.3815 9.71191C33.8842 9.71191 34.2991 10.1083 34.2991 10.59V14.479C34.2991 14.9608 33.8899 15.3535 33.3815 15.3535C32.8726 15.3535 32.4651 14.9608 32.4651 14.479V10.59Z" fill="white"/>
<path d="M32.3032 7.969C32.3032 7.33085 32.7831 6.82178 33.3811 6.82178C33.9792 6.82178 34.4629 7.33085 34.4629 7.969C34.4629 8.60715 33.9792 9.1144 33.3811 9.1144C32.7831 9.1144 32.3032 8.60168 32.3032 7.969Z" fill="white"/>
<path d="M50.252 7.969C50.252 7.33085 50.7374 6.82178 51.3337 6.82178C51.9301 6.82178 52.4155 7.33085 52.4155 7.969C52.4155 8.60715 51.9279 9.1144 51.3337 9.1144C50.7396 9.1144 50.252 8.6035 50.252 7.969Z" fill="white"/>
<path d="M50.4807 10.5886C50.4807 10.1068 50.8921 9.71045 51.4005 9.71045C51.909 9.71045 52.3204 10.1068 52.3204 10.5886V14.4757C52.3204 14.9593 51.9072 15.352 51.4005 15.352C50.8939 15.352 50.4807 14.9593 50.4807 14.4757V10.5886Z" fill="white"/>
<path d="M41.6167 11.4101C41.43 11.0193 41.0169 10.7411 40.5427 10.7411C40.0684 10.7411 39.6436 11.0174 39.4609 11.4101H41.6167ZM40.9575 13.7191C41.4967 13.6591 41.6643 13.4555 42.1441 13.1919C42.2606 13.1264 42.3918 13.0864 42.5387 13.0864C42.9748 13.0864 43.329 13.4228 43.329 13.8428C43.329 14.0864 43.2129 14.2991 43.0263 14.4391C42.491 14.8227 41.5309 15.3863 40.5769 15.3699C38.8152 15.3299 37.4094 14.0082 37.4094 12.3283C37.4094 10.6483 38.8437 9.2793 40.6016 9.2793C41.375 9.2793 42.0644 9.52474 42.6166 9.9629C43.19 10.4283 43.5936 11.1756 43.5784 11.8574C43.5784 12.3555 43.1575 12.7773 42.6318 12.7773H39.3634C39.4076 13.3191 39.8835 13.7427 40.4625 13.7427H40.5881C40.7254 13.7427 40.8319 13.7482 40.9558 13.7209" fill="white"/>
<path d="M49.7055 14.4626C49.7055 14.9535 49.2941 15.3516 48.7796 15.3516C48.2655 15.3516 47.8485 14.9553 47.8485 14.4626V11.9227C47.8485 11.4355 47.441 11.0409 46.9287 11.0409C46.4163 11.0409 46.0067 11.4355 46.0067 11.9227V14.4753C46.0067 14.9589 45.5953 15.3516 45.0886 15.3516C44.5823 15.3516 44.1709 14.9662 44.1709 14.4771V10.6446C44.1709 10.1155 44.6165 9.69189 45.167 9.69189C45.5745 9.69189 45.9019 9.87549 46.0526 10.21L46.0621 10.2282C46.0812 10.3028 46.1496 10.3191 46.218 10.3191C46.2791 10.3191 46.3094 10.3082 46.3514 10.2646C46.7078 9.91188 47.2067 9.69189 47.7571 9.69189C48.7341 9.69189 49.6405 10.3682 49.7072 11.2573V14.4626H49.7055Z" fill="white"/>
<path d="M35.0537 7.52342C35.0537 7.03798 35.4634 6.64893 35.9679 6.64893C36.4724 6.64893 36.8899 7.03798 36.8899 7.52342V14.4777C36.8899 14.9594 36.4763 15.3521 35.9679 15.3521C35.4595 15.3521 35.0537 14.9594 35.0537 14.4777V7.52342Z" fill="white"/>
<path d="M27.5722 6.95996H31.0081C31.4996 6.95996 31.9015 7.33631 31.9015 7.80717C31.9015 8.27807 31.5126 8.65624 31.0215 8.65624H28.6501V9.82164H30.4274C30.8461 9.82164 31.1835 10.1434 31.1835 10.5434C31.1835 10.9434 30.8461 11.267 30.4274 11.267H28.6522V14.4069C28.6522 14.9359 28.2083 15.3596 27.6596 15.3596C27.1114 15.3596 26.6675 14.9341 26.6675 14.4069V7.80535C26.6675 7.33631 27.0789 6.95996 27.5704 6.95996" fill="white"/>
<path d="M25.3993 64.2879C25.7064 64.2879 25.9554 64.0499 25.9554 63.7568C25.9554 63.4637 25.7064 63.2261 25.3993 63.2261C25.0923 63.2261 24.8433 63.4637 24.8433 63.7568C24.8433 64.0499 25.0923 64.2879 25.3993 64.2879Z" fill="white"/>
<path d="M29.4388 65.9369C29.2504 65.7895 29.3682 65.4716 29.599 65.4807C30.5167 65.5187 31.6959 65.4877 32.4538 65.4807C32.6422 65.4807 32.6976 65.5751 32.5317 65.6678C32.1186 65.8988 31.6175 66.1277 31.1226 66.2606C30.6024 66.4005 29.8771 66.2751 29.4388 65.9352V65.9369Z" fill="white"/>
<path d="M14.5277 60.448C21.9232 55.8391 26.7397 58.6554 28.4807 60.3515C28.7301 60.5953 29.4083 60.6864 29.4728 60.2153C29.6616 58.8372 29.5529 57.2119 29.1281 56.9138C28.5435 56.5027 27.4807 57.4772 27.081 57.0045C26.6808 56.5317 26.7627 53.5283 25.5761 52.9976C24.6714 52.5919 23.6905 53.8992 22.8603 53.7721C22.028 53.6446 20.1576 50.8283 18.7635 51.1756C17.3695 51.5246 17.3006 53.9957 16.4228 54.2718C15.28 54.632 13.2424 52.0392 11.8956 53.3921C10.7453 54.5467 11.6673 62.2297 14.5277 60.448ZM28.1723 57.63C28.2329 57.4665 28.6006 57.4156 28.7453 57.5882C28.9224 57.7972 28.9969 58.701 28.8557 58.7883C28.6024 58.9444 28.6179 58.3698 28.475 58.0953C28.3837 57.919 28.1035 57.8117 28.1723 57.63ZM24.7801 54.5628C24.7858 54.4246 25.0811 54.1248 25.1915 54.1137C25.8658 54.052 25.9685 56.4717 25.622 56.4717C25.2868 56.4717 25.3115 55.8718 25.1933 55.4301C25.0755 54.9863 24.7706 54.7976 24.7801 54.5612V54.5628ZM19.3958 53.094C19.3958 52.9247 19.6128 52.6465 19.8531 52.6577C20.4815 52.6846 21.2606 53.7667 21.3403 54.5392C21.3749 54.8609 21.3178 55.1792 21.1155 55.1792C20.8717 55.1792 20.7119 54.514 20.3711 54.0354C19.9406 53.4318 19.398 53.3557 19.398 53.094H19.3958ZM13.9851 54.4063C14.419 54.4063 14.9335 55.6284 16.0781 55.7319C16.4934 55.77 15.8875 56.699 15.2631 56.4539C14.6382 56.2063 13.7183 55.2066 13.6841 54.8866C13.6538 54.603 13.8153 54.4084 13.9868 54.4084L13.9851 54.4063Z" fill="white"/>
<path d="M28.4142 62.8624C28.4922 62.7879 28.5779 62.71 28.6732 62.6297C29.2029 62.1843 30.0465 62.1135 30.7342 62.2625C32.3071 62.6045 33.0918 63.1845 34.1567 63.8406C34.3148 63.9387 34.3126 64.1643 34.1242 64.1461C32.6674 64.0132 31.4214 63.9445 28.8369 63.8009C28.3324 63.7735 28.0561 63.2043 28.4142 62.8607V62.8624Z" fill="white"/>
<path d="M28.9304 67.1952C29.0105 66.9443 29.3704 67.0333 29.4102 67.2933C29.7168 69.2841 30.8445 69.6133 30.7245 71.6459C30.6557 72.8021 29.9359 73.6367 28.955 74.1567C28.6658 74.3111 28.3778 73.9857 28.5055 73.693C29.473 71.477 28.3037 69.1715 28.9304 67.1952Z" fill="white"/>
<path d="M24.302 64.93C24.4869 65.1192 24.1669 65.4263 23.7516 65.3208C23.0258 65.1337 22.4602 64.5172 22.4909 63.7009C22.5213 62.8829 23.1557 62.3174 23.9079 62.2809C24.2639 62.2627 24.6753 62.4647 24.247 62.7065C23.8391 62.9354 23.7572 63.3916 23.7421 63.8102C23.723 64.3243 23.9993 64.6228 24.302 64.93Z" fill="white"/>
<path d="M14.8726 70.9329C14.983 70.8659 15.1281 70.9458 15.1164 71.0733C15.0194 72.2183 14.5452 76.3056 12.6423 78.6346C12.5397 78.7601 12.6709 78.9401 12.8272 78.8727C14.5794 78.1109 15.3182 77.593 17.1107 75.9202C17.2475 75.791 17.4745 75.9239 17.4381 76.1002C16.9275 78.5291 16.3714 80.6962 14.7202 83.4161C14.627 83.5709 14.8232 83.7307 14.9926 83.6471C17.5372 82.4143 18.859 81.7564 20.8662 79.9635C21.036 79.8107 21.3331 79.9109 21.3158 80.1274C20.9749 84.1836 19.415 86.1579 17.9465 88.1433C17.8114 88.3267 18.1141 88.5287 18.3332 88.4323C21.7215 86.9705 23.5478 85.0708 24.8985 83.0779C25.0449 82.8618 25.4905 82.998 25.4697 83.2509C25.1289 87.4325 24.167 88.667 21.809 91.8956C21.4721 92.3576 21.916 92.4959 22.152 92.3796C25.7993 90.6015 27.7169 89.2031 29.8406 83.556C29.9472 83.2724 30.3737 83.289 30.456 83.58C32.7205 91.7048 26.0734 95.8177 26.765 96.3645C26.9153 96.4846 27.0465 96.6138 27.1361 96.4502C27.1361 96.4502 41.0185 90.6322 30.3339 75.6585C30.1243 75.3638 29.7285 75.2437 29.3569 75.3385C28.9342 75.4474 28.4505 75.5004 27.9018 75.4801C24.9154 75.3712 23.8262 72.7093 24.4927 70.1513C24.8755 68.6825 19.8186 66.5005 20.072 63.1481C20.1885 61.6134 21.3881 60.5955 23.8202 60.6845C24.8067 60.7209 25.9552 61.0699 26.8789 61.4081C27.001 61.4536 27.0941 61.2992 26.9915 61.221C26.0981 60.5317 24.462 59.6392 21.9805 59.6392C20.3253 59.6392 18.9391 60.1881 17.8075 60.9192C16.6174 61.6879 15.307 62.8516 14.5946 64.0443C13.9909 65.0536 13.5032 66.4698 12.7947 68.2876C12.1452 69.953 11.3873 71.9567 10.7628 72.4767C10.4748 72.7147 10.5571 73.0132 11.0599 72.8294C11.7186 72.5893 13.3738 71.8458 14.8687 70.9313L14.8726 70.9329ZM27.9477 82.4528C28.4427 81.0999 28.7168 79.4199 28.6978 77.793C28.6943 77.5309 29.02 77.36 29.2292 77.5401C30.0386 78.2347 30.89 79.5872 31.3014 81.2564C31.3416 81.4182 31.1433 81.5565 31.0216 81.4344C30.7302 81.1437 30.4673 80.9347 30.2503 80.7873C29.9589 80.589 29.5609 80.7327 29.3894 81.0237C29.0178 81.66 28.5324 82.2126 28.182 82.5707C28.0828 82.6726 27.9001 82.5798 27.9477 82.4507V82.4528ZM22.9956 82.1398C23.4339 80.9053 24.1268 78.4492 24.2719 76.9621C24.2887 76.78 24.546 76.693 24.6391 76.8545C25.1363 77.7056 25.3783 78.4984 25.4927 79.0146C25.5801 79.4092 25.5096 79.8236 25.287 80.1709C24.9652 80.6747 24.3554 81.4654 23.3022 82.3145C23.1593 82.4292 22.9367 82.3037 22.9956 82.1381V82.1398ZM19.0456 78.2765C19.897 76.6583 20.5921 74.2332 20.7311 72.5512C20.7463 72.3641 21.0091 72.2751 21.1083 72.4386C21.6756 73.382 22.2187 74.8148 22.068 75.6291C21.9026 76.52 20.91 77.302 19.2704 78.4438C19.1465 78.5311 18.9789 78.4057 19.0456 78.2765ZM16.5031 73.0384C17.1029 71.6876 17.3714 70.0367 17.5771 68.815C17.6 68.6825 17.7733 68.6387 17.8439 68.7571C18.2267 69.4004 18.5788 70.4858 18.3674 71.2223C18.1981 71.8168 18.0227 72.4787 16.9695 73.3332C16.821 73.4528 16.3108 73.471 16.5031 73.0405V73.0384Z" fill="white"/>
<path d="M54.4494 64.2879C54.7564 64.2879 55.0054 64.0499 55.0054 63.7568C55.0054 63.4637 54.7564 63.2261 54.4494 63.2261C54.1423 63.2261 53.8933 63.4637 53.8933 63.7568C53.8933 64.0499 54.1423 64.2879 54.4494 64.2879Z" fill="white"/>
<path d="M50.4117 65.9369C50.6005 65.7895 50.4823 65.4716 50.2519 65.4807C49.3338 65.5187 48.155 65.4877 47.3971 65.4807C47.2083 65.4807 47.1533 65.5751 47.3187 65.6678C47.7323 65.8988 48.233 66.1277 48.7284 66.2606C49.2481 66.4005 49.9739 66.2751 50.4117 65.9352V65.9369Z" fill="white"/>
<path d="M67.9548 53.3919C66.6084 52.039 64.5704 54.6317 63.428 54.2716C62.5515 53.9955 62.4813 51.5244 61.0873 51.1754C59.6928 50.8264 57.8228 53.6427 56.9905 53.7719C56.1581 53.899 55.179 52.5937 54.2743 52.9974C53.0877 53.5281 53.17 56.5315 52.7698 57.0043C52.3697 57.477 51.3069 56.5025 50.7223 56.9136C50.2979 57.2117 50.1892 58.837 50.3776 60.2151C50.4425 60.6879 51.1203 60.5951 51.3702 60.3513C53.1107 58.6552 57.9272 55.8389 65.3227 60.4477C68.1835 62.2295 69.1055 54.5465 67.9548 53.3919ZM51.3758 58.0951C51.2329 58.3696 51.248 58.9442 50.9947 58.7881C50.8518 58.7007 50.9263 57.797 51.1051 57.588C51.2502 57.4153 51.6174 57.4663 51.6785 57.6298C51.7469 57.8115 51.4672 57.9187 51.3758 58.0951ZM54.6554 55.4299C54.5372 55.8716 54.564 56.4715 54.2267 56.4715C53.8897 56.4715 53.9811 54.0518 54.6571 54.1134C54.7676 54.1246 55.0646 54.4227 55.0685 54.5626C55.0781 54.799 54.7736 54.9882 54.6554 55.4316V55.4299ZM59.4797 54.0335C59.1389 54.5117 58.9787 55.1774 58.7349 55.1774C58.5331 55.1774 58.4776 54.859 58.5101 54.5374C58.5902 53.7645 59.3693 52.6827 59.9977 52.6554C60.2376 52.6446 60.4546 52.9228 60.4546 53.0917C60.4546 53.3538 59.9119 53.43 59.4815 54.0335H59.4797ZM66.1667 54.8826C66.1321 55.2043 65.2105 56.2045 64.5878 56.4499C63.9628 56.6971 63.3574 55.766 63.7727 55.728C64.9152 55.6245 65.4296 54.4028 65.8657 54.4028C66.0351 54.4028 66.1988 54.5974 66.1684 54.881L66.1667 54.8826Z" fill="white"/>
<path d="M51.4367 62.8624C51.3583 62.7879 51.2726 62.71 51.1773 62.6297C50.6481 62.1843 49.8045 62.1135 49.1168 62.2625C47.5434 62.6045 46.7587 63.1845 45.6942 63.8406C45.5362 63.9387 45.5379 64.1643 45.7267 64.1461C47.1835 64.0132 48.429 63.9445 51.0136 63.8009C51.5185 63.7735 51.7944 63.2043 51.4367 62.8607V62.8624Z" fill="white"/>
<path d="M50.9187 67.1952C50.839 66.9443 50.4787 67.0333 50.4388 67.2933C50.1322 69.2841 49.0045 69.6133 49.1249 71.6459C49.1933 72.8021 49.9131 73.6367 50.894 74.1567C51.1837 74.3111 51.4713 73.9857 51.3435 73.693C50.3761 71.477 51.5453 69.1715 50.9187 67.1952Z" fill="white"/>
<path d="M55.5489 64.93C55.3639 65.1192 55.684 65.4263 56.0993 65.3208C56.8247 65.1337 57.3902 64.5172 57.3599 63.7009C57.3296 62.8829 56.6952 62.3174 55.9429 62.2809C55.587 62.2627 55.1755 62.4647 55.6038 62.7065C56.0114 62.9354 56.0932 63.3916 56.1088 63.8102C56.1279 64.3243 55.8516 64.6228 55.5489 64.93Z" fill="white"/>
<path d="M68.7856 72.8308C69.2883 73.013 69.3702 72.7166 69.0826 72.4781C68.4577 71.9602 67.6999 69.9549 67.0503 68.2895C66.34 66.4713 65.8524 65.0567 65.2504 64.0462C64.5381 62.8535 63.228 61.6915 62.0375 60.9206C60.9064 60.19 59.5197 59.6406 57.8645 59.6406C55.3831 59.6406 53.7469 60.5336 52.8539 61.2224C52.7526 61.3007 52.8444 61.4551 52.9661 61.4096C53.8898 61.0718 55.0383 60.7224 56.0248 60.6863C58.4569 60.5969 59.657 61.6153 59.773 63.1495C60.0281 66.5023 54.9699 68.6824 55.3527 70.1528C56.0192 72.7112 54.9296 75.371 51.9432 75.482C51.3949 75.5018 50.9112 75.4493 50.4881 75.34C50.117 75.2435 49.7207 75.3656 49.5111 75.66C38.8265 90.632 52.7089 96.4517 52.7089 96.4517C52.8002 96.6136 52.9297 96.4844 53.0804 96.3664C53.7716 95.8191 47.1249 91.7067 49.3894 83.5815C49.4713 83.2905 49.8978 83.2743 50.0044 83.5579C52.1281 89.205 54.0462 90.603 57.6934 92.381C57.9312 92.4974 58.3734 92.3591 58.036 91.8975C55.6784 88.6668 54.7166 87.434 54.3753 83.2524C54.3545 82.9998 54.8001 82.8632 54.9469 83.0797C56.2972 85.0722 58.1235 86.9724 61.5118 88.4341C61.7327 88.5285 62.0358 88.3286 61.8985 88.1448C60.4322 86.1577 58.8701 84.1834 58.5293 80.1289C58.5102 79.9124 58.8073 79.8143 58.9788 79.9654C60.9861 81.7579 62.3082 82.4161 64.8525 83.6485C65.0239 83.7322 65.2201 83.5707 65.1249 83.418C63.4736 80.6981 62.9175 78.5309 62.4069 76.1017C62.371 75.9253 62.5958 75.7945 62.7348 75.9216C64.529 77.5929 65.2656 78.1128 67.0182 78.8745C67.1741 78.9416 67.3058 78.7615 67.2027 78.6361C65.3002 76.3074 64.826 72.2202 64.7286 71.0747C64.7173 70.9493 64.862 70.8673 64.9724 70.9348C66.4678 71.851 68.1225 72.5949 68.7817 72.8329L68.7856 72.8308ZM51.6673 82.5726C51.3166 82.2141 50.8311 81.6614 50.4595 81.0252C50.2885 80.7341 49.89 80.5909 49.599 80.7888C49.3838 80.9361 49.1188 81.1436 48.8273 81.4362C48.7056 81.558 48.5077 81.4197 48.5475 81.2578C48.959 79.5891 49.8104 78.2362 50.6198 77.5419C50.8294 77.3619 51.155 77.5345 51.1511 77.7945C51.1338 79.4218 51.4084 81.1017 51.9016 82.4542C51.9493 82.5834 51.7661 82.6761 51.6673 82.5743V82.5726ZM56.5484 82.3143C55.4952 81.4652 54.8859 80.6724 54.5641 80.1707C54.3411 79.8217 54.2709 79.409 54.3584 79.0145C54.4727 78.4982 54.7127 77.7034 55.2116 76.8543C55.3051 76.6945 55.5619 76.7819 55.5792 76.9619C55.7239 78.449 56.4172 80.9051 56.855 82.1396C56.9144 82.3052 56.6913 82.4306 56.5484 82.3159V82.3143ZM60.5807 78.4415C58.9407 77.2998 57.9485 76.5182 57.7827 75.6273C57.6302 74.813 58.1733 73.3802 58.7428 72.4363C58.8415 72.2728 59.1044 72.3639 59.12 72.5493C59.2607 74.2309 59.9558 76.6544 60.8055 78.2743C60.8721 78.4034 60.7046 78.5289 60.5807 78.4415ZM62.8811 73.3272C61.8279 72.4728 61.6547 71.8112 61.4832 71.2167C61.2719 70.4819 61.6244 69.3965 62.0072 68.7511C62.0774 68.6331 62.251 68.6766 62.2736 68.8094C62.4793 70.0311 62.7478 71.6837 63.348 73.0329C63.5403 73.4638 63.0279 73.4456 62.8811 73.3255V73.3272Z" fill="white"/>
<path d="M42.2661 77.5007V76.3006H41.0206V65.3794L39.912 63.5049L38.8284 65.3794V76.2989H37.5825V77.4986H39.3312V79.3152C39.0056 79.5093 38.8055 79.8513 38.8055 80.2206C38.8055 80.8097 39.3061 81.2895 39.9232 81.2895C40.5404 81.2895 41.0431 80.8097 41.0431 80.2206C41.0431 79.8513 40.8435 79.5093 40.5178 79.3152V77.4986H42.2661V77.5007Z" fill="white"/>
</svg>
